<?xml version="1.0" standalone="no"?>
<!DOCTYPE svg PUBLIC "-//W3C//DTD SVG 1.1//EN" "http://www.w3.org/Graphics/SVG/1.1/DTD/svg11.dtd" >
<svg xmlns="http://www.w3.org/2000/svg" xmlns:xlink="http://www.w3.org/1999/xlink" version="1.1">
<metadata></metadata>
<defs>
<font id="aleoitalic" horiz-adv-x="738" >
<font-face units-per-em="1000" ascent="805" descent="-195" />
<missing-glyph horiz-adv-x="208" />
<glyph unicode="&#xfb01;" horiz-adv-x="605" d="M564 689q23 -22 21.5 -47.5t-21.5 -47t-43 -21.5q-36 0 -53.5 25.5t-3.5 58.5q-46 15 -91 7t-73 -31q-45 -37 -54 -111l-3 -26h306l-52 -423l55 -12q15 -3 13 -18l-5 -43h-161l53 432h-215q-9 -79 -28 -235.5t-29 -234.5q-9 -67 -48.5 -105.5t-108.5 -38.5q-36 0 -60 10 l10 48q3 10 17 10h19q40 0 58.5 18.5t23.5 58.5l57 467l-55 7q-22 6 -21 23l4 36l80 1v-1l4 28q12 99 79 154.5t177 57.5q93 0 148 -47zM243 496z" />
<glyph unicode="&#xfb02;" horiz-adv-x="652" d="M606 60q15 0 15 -10l-2 -48q-27 -10 -62 -10q-65 0 -97.5 38.5t-24.5 106.5l65 526h-102q-66 0 -105 -37.5t-47 -102.5l-3 -27h146l-8 -64h-144q-9 -79 -28 -235.5t-29 -234.5q-9 -67 -48.5 -105.5t-108.5 -38.5q-36 0 -60 10l10 48q3 10 17 10h19q40 0 58.5 18.5 t23.5 58.5l57 467l-55 7q-22 6 -21 23l4 36l80 1l3 26q11 92 74.5 149.5t159.5 57.5l153 -6h50l-72 -588q-5 -40 9.5 -58t52.5 -18h20z" />
<glyph horiz-adv-x="0" />
<glyph unicode="&#xd;" horiz-adv-x="178" />
<glyph horiz-adv-x="178" />
<glyph horiz-adv-x="178" />
<glyph unicode=" "  horiz-adv-x="208" />
<glyph unicode="&#x09;" horiz-adv-x="208" />
<glyph unicode="&#xa0;" horiz-adv-x="208" />
<glyph unicode="!" horiz-adv-x="225" d="M199 716l-35 -286q-4 -30 -6 -44q-2 -17 -8 -43q-3 -14 -9 -44q-3 -15 -11 -49h-61q0 9 0.5 25.5t0.5 23.5q0 16 2 44q0 7 1 21.5t2 21.5q1 14 5 44l35 286h84zM12 55q1 12 8 25q4 8 15 19q9 9 22 14t25 5t24 -5q10 -4 18 -14q9 -11 11 -19q3 -13 2 -25t-8 -25 q-4 -8 -16 -20q-8 -8 -22 -13q-13 -5 -25 -5t-24 5q-11 5 -18 13q-7 9 -10 20q-3 13 -2 25z" />
<glyph unicode="&#x22;" horiz-adv-x="350" d="M156 716l-17 -144l-18 -78q-2 -14 -12 -25q-8 -9 -23 -9q-13 0 -19 9q-5 8 -7 25l1 78l18 144h77zM323 716l-18 -144l-17 -78q-2 -14 -12 -25q-8 -9 -24 -9q-13 0 -19 9q-5 8 -7 25l2 78l17 144h78z" />
<glyph unicode="#" horiz-adv-x="568" d="M373 212l-68 -212h-40q-12 0 -19 8t-5 22l1 2v2q0 2 1 4l57 173h-124l-57 -177q-6 -18 -19 -26t-26 -8h-40l69 211h-73q-12 0 -18 6t-4 20q0 1 0.5 2.5t0.5 2.5q0 2 2 6l7 29h102l53 163h-116l11 37q4 14 14 21t29 7h79l58 179q4 15 17 24q11 8 27 8h40l-68 -210h123 l68 210h40q13 0 20 -7t5 -19q0 -5 -1 -7l-58 -177h106l-11 -38q-4 -15 -15 -21q-12 -7 -29 -7h-69l-52 -163h89q12 0 18 -6q5 -5 4 -20q0 -1 -0.5 -2.5t-0.5 -2.5q0 -4 -1 -6l-8 -28h-119zM194 277h123l53 163h-124z" />
<glyph unicode="$" horiz-adv-x="516" d="M168 -6q-59 6 -106 30t-78 61l31 41q5 7 11 9q10 4 14 4q8 0 20 -10q10 -9 27 -21t39 -24q21 -11 56 -16l52 266q-39 12 -66 24q-36 15 -57 34q-24 21 -36 54t-6 80q5 37 23 72q18 34 49 62q28 25 72 44q41 17 95 19l14 72q2 10 9 17q8 8 19 8h33l-20 -100q54 -6 88 -26 q33 -19 62 -50l-26 -33q-12 -15 -25 -15q-7 0 -16 6q-20 13 -23 15q-4 3 -9 5.5t-12 5.5t-11 5q-18 9 -42 12l-46 -242q36 -11 68 -24q38 -15 59 -33q25 -20 39 -52q14 -31 8 -76t-26 -85t-52 -69q-35 -32 -76 -49q-46 -19 -98 -22l-17 -88q-1 -8 -10 -17q-7 -7 -18 -7h-33z M390 204q3 27 -3 42q-8 20 -22 32q-15 13 -35 22q-37 16 -44 18l-47 -250q32 3 59 15q28 13 46 29q20 19 31 40q12 24 15 52zM154 535q-3 -23 3 -41t20 -32q13 -12 32 -23q21 -11 41 -18l43 225q-34 -3 -58 -13q-27 -11 -42 -25q-17 -15 -27 -33q-8 -14 -12 -40z" />
<glyph unicode="%" horiz-adv-x="747" d="M359 544q-4 -38 -23 -76q-17 -33 -41 -56q-22 -21 -55 -34q-30 -12 -62 -12q-34 0 -61 12q-29 13 -46 34q-20 25 -27 56q-8 33 -3 76q6 44 22 76q17 35 40 56q26 24 55 36q30 12 64 12q32 0 61 -12q26 -11 46 -36t27 -56q8 -37 3 -76zM289 544q4 33 0 55q-5 23 -15 38 q-11 15 -25 21q-17 7 -34 7t-36 -7q-18 -7 -31 -21q-15 -16 -23 -37q-10 -24 -14 -56q-5 -33 0 -56q5 -24 14 -37t26 -20t34 -7t36 7t31 20t23 37q9 19 14 56zM628 698q7 9 16 14q7 4 19 4h64l-609 -702q-4 -4 -14 -10q-7 -4 -16 -4h-66zM709 169q-4 -39 -22 -75 q-16 -31 -42 -56q-22 -21 -55 -34q-30 -12 -62 -12q-34 0 -61 12q-29 13 -46 34q-19 23 -26 56t-3 75q7 48 21 77q17 33 41 56q25 23 54 35q30 12 64 12t61 -12q29 -13 47 -35q19 -23 26 -56q8 -37 3 -77zM640 169q4 32 0 56q-4 23 -15 38q-10 15 -26 21q-15 6 -34 6t-35 -6 q-18 -7 -31 -21q-17 -19 -24 -38q-8 -22 -13 -56q-4 -33 0 -55q5 -24 14 -37t26 -20q18 -7 34 -7t35 7t31 20q14 16 24 37q9 20 14 55z" />
<glyph unicode="&#x26;" horiz-adv-x="656" d="M364 724q39 0 71 -12q29 -11 52 -34q20 -20 31 -49q11 -27 9 -58l-57 -11h-5q-5 0 -11 3q-5 3 -7 13q-1 12 -8 27q-5 11 -17 25q-10 11 -27 19q-18 8 -39 8q-24 0 -46 -8q-18 -6 -37 -22q-15 -14 -26 -34q-10 -18 -13 -42q-2 -23 0 -33q3 -14 9 -32q7 -19 17 -34 q5 -8 29 -36l180 -210q20 29 39 71q14 30 24 73q1 8 8 15q6 6 15 6h55q-7 -53 -33 -113q-24 -57 -63 -104l131 -152h-86q-14 0 -23 3q-7 2 -18 15l-63 72q-53 -45 -117 -72q-62 -26 -138 -26q-41 0 -77 13q-35 13 -64 40q-28 27 -41 62q-14 39 -8 84q4 33 20 66q14 30 39 58 q23 25 55 47t67 36q-25 39 -36 75q-10 34 -5 76q4 34 22 68q17 32 45 56q30 26 65 38q36 13 82 13zM101 198q-4 -32 5 -57q10 -28 26 -42q19 -17 42 -26q24 -9 50 -9q56 0 103 21q52 23 85 54l-185 214q-57 -29 -89 -68q-31 -38 -37 -87z" />
<glyph unicode="'" horiz-adv-x="184" d="M156 716l-17 -144l-18 -78q-2 -14 -12 -25q-8 -9 -23 -9q-13 0 -19 9q-5 8 -7 25l1 78l18 144h77z" />
<glyph unicode="(" horiz-adv-x="259" d="M107 314q-13 -105 2 -207q15 -100 56 -193q3 -6 3 -9v-8q-2 -7 -5 -11q-6 -6 -10 -8l-43 -24q-29 54 -49 114q-21 61 -29 113q-9 57 -9 115q0 61 7 118q8 65 22 119q16 61 37 115q18 46 57 113q32 55 78 115l36 -25q5 -3 8 -8t2 -11q-2 -11 -7 -18q-65 -95 -103 -192 q-40 -102 -53 -208z" />
<glyph unicode=")" horiz-adv-x="261" d="M143 314q13 105 -2 208q-15 104 -56 192q-5 9 -3 18q2 8 5 11q6 6 10 8l43 25q29 -57 49 -115q21 -61 29 -113q10 -63 10 -115q0 -54 -8 -118q-8 -66 -22 -119q-17 -64 -37 -115q-22 -53 -57 -113q-33 -57 -78 -114l-36 24q-5 3 -8 8t-2 11q0 2 2 8q1 2 2.5 4.5t2.5 4.5 q61 88 103 193q39 97 53 207z" />
<glyph unicode="*" horiz-adv-x="371" d="M153 432l12 98l3 18q3 10 7 16q-12 -12 -29 -22l-92 -50l-18 38l93 50q19 10 38 12q-12 2 -19 4q-8 3 -16 8l-81 51l27 37l80 -50q18 -12 26 -26q-4 12 -4 19v19l12 99h44l-12 -99q-3 -23 -11 -36q6 8 14 14q3 2 8.5 5t7.5 5l92 50l18 -38l-92 -50q-6 -4 -18 -8 q-6 -2 -18 -4q12 -2 17 -4q12 -5 16 -8l80 -50l-27 -38l-80 50q-12 8 -15 11q-8 8 -11 13q7 -18 4 -36l-12 -98h-44z" />
<glyph unicode="+" horiz-adv-x="507" d="M322 583l-27 -213h204l-9 -68h-203l-26 -215h-73l26 215h-202l8 68h202l27 213h73z" />
<glyph unicode="," horiz-adv-x="229" d="M51 62q1 11 7 21q7 12 14 18q11 9 21 13q11 4 24 4q17 0 26 -5q12 -7 18 -16q6 -8 9 -22q3 -11 1 -28q-3 -19 -13 -47q-9 -24 -24 -48q-14 -22 -36 -46q-25 -27 -45 -42l-13 15q-6 6 -5 14q1 5 9 13q2 2 6.5 7t7.5 8q13 13 19 21q9 12 18 27q8 14 13 31h-6q-14 0 -23 4 q-12 5 -17 13q-6 10 -9 20q-3 13 -2 25z" />
<glyph unicode="-" horiz-adv-x="360" d="M62 338h247l-9 -76h-248z" />
<glyph unicode="." horiz-adv-x="223" d="M41 55q2 14 7 25q3 6 16 19q10 10 21 14q13 5 25 5t24 -5q11 -5 19 -14q7 -9 10 -19q3 -13 2 -25t-8 -25q-5 -10 -15 -20q-8 -8 -22 -13q-13 -5 -25 -5t-24 5q-11 5 -18 13q-9 10 -11 20q-3 10 -1 25z" />
<glyph unicode="/" horiz-adv-x="462" d="M79 -10q-8 -17 -24 -26q-15 -9 -29 -9h-38l392 749q8 15 22 24q12 8 29 8h38z" />
<glyph unicode="0" horiz-adv-x="597" d="M557 358q-12 -96 -40 -163t-70 -114q-40 -45 -91 -67q-50 -22 -105 -22t-99 22t-74 67q-29 43 -41 114q-12 69 0 163q12 96 40 163q29 69 69 114q40 44 90 67q48 22 105 22q56 0 100 -22t74 -67t42 -114t0 -163zM464 358q10 82 3 138q-8 57 -26 89q-20 35 -47 49 q-28 15 -62 15q-32 0 -65 -15q-34 -15 -60 -49q-28 -35 -48 -89q-19 -50 -30 -138q-11 -82 -3 -138q8 -59 25 -89q19 -34 48 -49t62 -15q32 0 65 15q34 15 60 49q28 35 48 89q19 50 30 138z" />
<glyph unicode="1" horiz-adv-x="419" d="M378 58q14 -3 12 -18l-5 -40h-384l4 30l1 10q2 15 16 18l141 10l60 488q4 30 7 45l-141 -109q-11 -8 -19 -8q-17 0 -23 11l-23 39l236 184h72l-80 -650q123 -9 126 -10z" />
<glyph unicode="2" horiz-adv-x="546" d="M128 73q44 11 81 11h197q3 12 5.5 26t4.5 22t2 10q5 17 23 17h48l-6 -48t-6 -49l-7 -62h-478l4 31q3 22 21 37l258 231q39 36 55.5 51.5t42.5 48t40 64.5q28 64 13 115q-22 70 -110 70q-81 0 -129 -64q-16 -21 -23 -43q-12 -28 -36 -28q-7 0 -11 1l-46 8q19 71 63 119.5 t109 69.5q40 13 87 13q72 0 119.5 -30t64.5 -85q11 -41 6 -82.5t-21 -75.5q-13 -27 -30 -51.5t-42 -50.5t-40 -40.5t-47 -43.5z" />
<glyph unicode="3" horiz-adv-x="536" d="M318 724q47 0 83 -13q37 -13 62 -37q24 -22 36 -58q11 -31 6 -75q-5 -35 -16 -61q-10 -22 -31 -47q-16 -19 -43 -34q-25 -14 -55 -23q68 -18 98 -62q30 -43 22 -109q-6 -50 -30 -89q-26 -42 -59 -67q-36 -27 -81 -42t-95 -15q-60 0 -96 14q-39 15 -63 39q-26 25 -39 60 q-14 35 -21 74l39 16q9 4 22 4q10 0 17 -4t10 -13q2 -2 2 -4q0 -1 0.5 -2.5t0.5 -2.5q2 -6 13 -33q7 -16 23 -34q15 -16 39 -27q25 -11 61 -11q38 0 68 12q29 12 51 32q21 19 33 44q12 24 15 47q3 31 -1 53q-4 23 -23 42q-16 16 -52 27q-33 10 -91 10l8 65q42 0 79 10 q33 9 56 26t35 39q12 23 15 51q4 32 -3 54q-8 24 -22 38t-38 22t-49 8t-51 -8q-20 -6 -43 -22q-19 -15 -34 -34q-14 -18 -24 -43q-6 -16 -14 -21q-9 -6 -21 -6h-6h-6l-45 8q14 51 37 87q24 37 59 63q36 26 75 39q40 13 87 13z" />
<glyph unicode="4" horiz-adv-x="553" d="M435 258h109l-7 -50q-2 -10 -6 -14q-6 -6 -16 -6h-89l-23 -188h-78l23 188h-318q-10 0 -16 6q-7 7 -8 14l-3 46l405 462h83zM393 554q2 18 4 28q4 20 7 31l-304 -355h257z" />
<glyph unicode="5" horiz-adv-x="522" d="M502 678q-3 -21 -16 -32q-14 -12 -42 -12h-225l-56 -188q57 12 105 12q58 0 97 -16t66 -46q24 -27 35 -68q10 -38 4 -86q-8 -59 -32 -103q-25 -45 -65 -79q-37 -32 -88 -50q-49 -18 -103 -18q-32 0 -60 6q-25 5 -52 17q-25 11 -44 24q-16 11 -34 29l32 38q10 13 25 13 q9 0 22 -8q22 -14 28 -17q24 -13 40 -18q26 -8 57 -8q38 0 69 12t56 35t39 53q16 33 20 70q4 32 -2 60q-6 26 -24 46t-46 30q-27 10 -68 10q-29 0 -56 -4q-31 -5 -62 -15l-54 17l99 334h340z" />
<glyph unicode="6" horiz-adv-x="523" d="M313 439q46 0 80 -14q37 -15 62 -42q26 -27 38 -67q12 -39 6 -90q-6 -47 -30 -92q-23 -42 -59 -74q-37 -32 -84 -50q-48 -18 -102 -18q-56 0 -96 17q-41 18 -68 49q-29 34 -39 77q-11 48 -4 101q6 48 33 100q25 48 81 114l211 245q7 8 22 15q14 6 29 6h79l-287 -314 q26 17 60 27q35 10 68 10zM101 221q-4 -33 2 -63q5 -25 24 -49q16 -20 43 -32q25 -11 62 -11q36 0 66 12q32 13 54 32q24 21 38 48q13 25 18 61q4 35 -3 63q-8 29 -25 48q-20 22 -44 31q-26 10 -60 10q-37 0 -67 -12q-31 -12 -53 -33q-24 -23 -37 -48q-15 -31 -18 -57z" />
<glyph unicode="7" horiz-adv-x="541" d="M53 716h487l-4 -40q-3 -22 -18 -46l-370 -598q-20 -32 -52 -32h-64l374 591q20 30 33 43h-320q-14 -71 -16 -75q-6 -17 -22 -17h-49z" />
<glyph unicode="8" horiz-adv-x="550" d="M232 -8q-56 0 -97 14q-44 16 -71 41q-29 27 -42 64t-7 85q9 70 50 114q40 43 111 63q-53 21 -77 63q-24 43 -17 100q4 37 25 74q19 34 51 60q31 25 73 40q39 14 91 14q51 0 86 -14q40 -16 64 -40q25 -25 37 -60q11 -31 6 -74q-8 -59 -41 -100t-93 -62q66 -20 95 -64 q31 -46 22 -114q-6 -49 -28 -85q-22 -37 -57 -64q-32 -25 -82 -41q-43 -14 -99 -14zM240 63q32 0 64 10q31 10 51 27q19 16 34 43q14 25 17 54q5 38 -4 64q-8 24 -28 42q-19 17 -45 25q-24 7 -55 7t-58 -7q-25 -7 -50 -25q-26 -19 -39 -42q-16 -28 -20 -64q-3 -31 4 -54 q8 -26 24 -43q16 -18 44 -27q30 -10 61 -10zM283 407q34 0 61 11t44 28q15 15 27 41q10 21 13 47q3 25 -3 47q-6 23 -19 39t-38 26q-22 9 -55 9q-31 0 -57 -9q-25 -9 -44 -26t-29 -39q-11 -24 -14 -47q-3 -26 1 -47q5 -23 18 -41q14 -18 36 -28q25 -11 59 -11z" />
<glyph unicode="9" horiz-adv-x="520" d="M210 294q-39 0 -75 14q-37 15 -59 39q-23 26 -35 65t-6 88t28 88q22 40 58 71q33 29 81 48q45 18 98 18q49 0 91 -17q36 -15 66 -48q27 -30 38 -73q10 -41 4 -94q-5 -35 -13 -59q-9 -29 -23 -54q-12 -21 -33 -53q-9 -13 -41 -54l-206 -252q-7 -9 -20 -15q-12 -6 -28 -6 h-82l253 286q22 25 24 27q4 4 11 12.5t10 13.5q-26 -20 -66 -33q-36 -12 -75 -12zM415 504q5 33 -3 60q-8 28 -24 47q-15 18 -42 29q-24 10 -56 10t-62 -11q-31 -11 -50 -29q-22 -21 -35 -46q-14 -27 -18 -58q-4 -33 2 -61q6 -26 23 -45q18 -20 41 -28q26 -9 57 -9 q39 0 65 11q30 13 51 32q22 20 35 45q13 24 16 53z" />
<glyph unicode=":" horiz-adv-x="239" d="M30 55q1 12 8 25q4 8 15 19q9 9 22 14t25 5t24 -5q10 -4 18 -14q9 -11 11 -19q3 -13 2 -25t-8 -25q-4 -8 -16 -20q-8 -8 -22 -13q-13 -5 -25 -5t-24 5q-11 5 -18 13q-7 9 -10 20q-3 13 -2 25zM76 430q1 12 8 25q5 10 15 20q8 8 22 13q13 5 25 5t24 -5q11 -5 18 -13 q9 -10 11 -20q3 -13 2 -25t-8 -25q-3 -6 -16 -19q-9 -9 -22 -14q-11 -4 -25 -4q-15 0 -24 4q-10 4 -18 14q-8 9 -10 19q-3 13 -2 25z" />
<glyph unicode=";" horiz-adv-x="242" d="M39 62q1 11 7 21q7 12 14 18q12 10 20 13q11 4 25 4q17 0 26 -5q10 -6 17 -16q6 -8 9 -22q3 -11 1 -28q-3 -23 -12 -47q-8 -20 -25 -48q-16 -26 -35 -46q-25 -27 -45 -42l-14 15q-6 6 -4 14q2 7 8 13l15 15q9 9 18 21t18 27q10 17 14 31h-7q-14 0 -23 4q-10 4 -16 13 q-8 12 -10 20q-3 10 -1 25zM81 430q1 12 8 25q5 10 15 20q8 8 22 13q13 5 25 5t24 -5q11 -5 18 -13q9 -10 11 -20q3 -13 2 -25t-8 -25q-3 -6 -16 -19q-9 -9 -22 -14q-11 -4 -25 -4q-15 0 -24 4q-10 4 -18 14q-7 9 -10 19q-3 13 -2 25z" />
<glyph unicode="&#x3c;" horiz-adv-x="458" d="M26 355l412 201l-8 -64q-2 -9 -6 -15q-5 -7 -15 -11l-239 -114q-11 -6 -22 -9q-3 -1 -11.5 -3.5t-13.5 -3.5q22 -5 23 -6l20 -10l211 -113q9 -4 12 -11q4 -9 3 -15l-8 -64l-362 201z" />
<glyph unicode="=" horiz-adv-x="554" d="M57 287h430l-9 -67h-429zM78 454h429l-8 -67h-429z" />
<glyph unicode="&#x3e;" horiz-adv-x="455" d="M22 117l7 64q2 10 6 15q5 6 16 11l238 114q3 2 11 5t11 4t24 6q-5 1 -13 3.5t-10 3.5q-10 3 -19 9l-211 114q-9 4 -12 11t-2 15l7 64l362 -201l-4 -37z" />
<glyph unicode="?" horiz-adv-x="388" d="M24 652q19 16 38 28q18 12 44 23q23 10 50 16t56 6q39 0 72 -12q32 -12 54 -32q22 -21 33 -51q10 -28 5 -68q-5 -39 -19 -65q-17 -31 -34 -49q-18 -19 -43 -36q-15 -10 -41 -28q-17 -12 -34 -27q-14 -13 -19 -30l-18 -77h-61l4 83l1 6q3 21 16 37q15 18 32 30 q8 6 23 16.5t18 12.5q28 20 40 31q22 21 34 40q14 24 17 52q3 20 -3 38q-6 17 -20 30q-16 14 -32 19q-23 7 -41 7q-29 0 -53 -8q-25 -8 -39 -16q-9 -5 -26 -17q-10 -7 -17 -7q-13 0 -18 11zM49 55q1 12 8 25q5 10 15 20q8 8 22 13q13 5 25 5t24 -5q11 -5 18 -13 q9 -10 11 -20q3 -13 2 -25t-8 -25q-3 -6 -16 -19q-10 -10 -21 -14t-26 -4q-14 0 -23 4q-11 5 -19 14q-7 9 -10 19q-3 13 -2 25z" />
<glyph unicode="@" horiz-adv-x="799" d="M541 93q-37 0 -61 19q-22 18 -24 58q-34 -40 -70 -58t-75 -18q-31 0 -51 10t-33 29t-17 43t-1 54q4 39 27 86q20 42 58 78q36 34 87 57q50 22 113 22q34 0 58 -6q32 -8 46 -15l-69 -180q-14 -39 -17 -62q-2 -20 1 -30q3 -14 10 -19q8 -6 17 -9q7 -2 21 -2q23 0 48 14 t44 39q22 29 34 61q13 34 19 80q9 70 -7 121q-17 53 -50 86q-36 36 -86 52q-51 18 -111 18q-66 0 -129 -26q-61 -25 -110 -70q-48 -44 -82 -107q-32 -59 -41 -134q-11 -87 8 -149q20 -65 60 -108q39 -42 100 -65q59 -22 131 -22q79 0 137 16q60 16 105 42q8 5 14 5 q11 0 14 -12l9 -33q-58 -36 -129 -57q-67 -20 -157 -20q-88 0 -158 27t-119 79q-48 51 -71 127q-22 74 -10 170q5 48 27 105q18 48 50 94q29 42 70 80t85 62q50 27 98 40q51 15 105 15q48 0 89 -10q40 -10 79 -30q36 -19 67 -48q27 -26 48 -66q19 -37 27 -83q7 -43 1 -99 q-6 -55 -27 -100q-23 -50 -52 -80q-32 -33 -69 -52q-38 -19 -81 -19zM335 153q14 0 32 5q13 4 33 18q14 10 31 34t28 54l56 147q-22 5 -42 5q-36 0 -71 -16q-33 -15 -59 -41q-25 -25 -42 -59q-17 -33 -21 -67q-5 -37 9 -58q14 -22 46 -22z" />
<glyph unicode="A" horiz-adv-x="765" d="M703 56q12 -3 11 -16l-4 -40h-206l5 40q1 13 15 16l43 12l-38 144h-309l-74 -144l39 -12q13 -3 12 -16l-5 -40h-206l5 40q1 13 15 16l42 12l339 648h98l180 -648zM255 282h255l-72 276q-7 24 -13 67q-19 -46 -30 -68z" />
<glyph unicode="B" horiz-adv-x="626" d="M455 368q154 -31 138 -164q-12 -92 -84 -148q-74 -56 -193 -56h-325l5 43q2 16 18 19l58 11l70 571q-13 2 -26.5 5t-20 4.5t-9.5 1.5q-14 3 -12 19l5 42h300q192 0 225 -108q11 -35 6 -70q-5 -41 -15 -60q-13 -25 -31 -45q-41 -44 -109 -65zM239 640l-30 -244h128 q119 0 158 72q13 25 16 50q7 62 -27 92t-114 30h-131zM324 77q120 0 158 77q13 27 16 52q7 55 -29 88q-35 32 -114 32h-155l-31 -249h155z" />
<glyph unicode="C" horiz-adv-x="621" d="M428 724q86 0 216 -51l-7 -56l-14 -111h-48q-17 0 -19 17q-1 3 1 45q0 11 0.5 22t1 16.5t0.5 7.5q-215 70 -343 -50q-82 -76 -99 -206q-16 -130 47 -208q58 -74 167 -74q63 0 96 12q53 19 95 52q10 8 18 8q7 0 13 -6l33 -42q-106 -108 -271 -108q-154 0 -235 102 q-81 101 -62 264q19 161 133 264q113 102 277 102z" />
<glyph unicode="D" d="M719 358q-10 -78 -44 -146q-35 -69 -85 -114q-108 -98 -268 -98h-330l5 43q2 16 17 19l58 11l71 571q-13 2 -26.5 5t-20 4.5t-9.5 1.5q-15 3 -13 19l5 42h331q158 0 243 -98q86 -99 66 -260zM619 358q8 70 -3 118q-12 53 -40 88q-59 74 -176 74h-161l-68 -560h161 q116 0 193 74t94 206z" />
<glyph unicode="E" horiz-adv-x="574" d="M79 716h514l-21 -172h-48q-18 0 -19 17q0 29 2 77h-268l-29 -238h264l-9 -76h-264l-30 -245h268q14 67 15 71q6 17 24 17h48l-21 -167h-513l5 43q2 16 17 19l58 11l71 571q-13 2 -26.5 5t-20 4.5t-9.5 1.5q-15 3 -13 19z" />
<glyph unicode="F" horiz-adv-x="583" d="M151 716h459l-21 -172h-49q-17 0 -18 17q0 29 2 77h-285l-30 -251h272l-10 -79h-272l-29 -235q3 -1 10.5 -2.5t20.5 -3.5t25 -5q14 -3 12 -19l-5 -43h-241l5 43q2 16 17 19l58 11l71 571q-13 2 -26.5 5t-20 4.5t-9.5 1.5q-15 3 -13 19l5 42h72z" />
<glyph unicode="G" horiz-adv-x="678" d="M344 70q99 0 183 42l19 158h-111q-10 0 -14 6q-5 7 -4 13l7 55h220l-34 -275q-116 -77 -282 -77q-157 0 -243 101q-87 102 -67 265q21 164 132 265t280 101q116 0 246 -51l-20 -167h-48q-17 0 -19 17q0 2 0.5 12.5t1.5 32.5t2 46q-8 3 -20.5 6.5t-16.5 4.5 q-54 15 -127 15q-75 0 -125 -19q-48 -18 -90 -57q-81 -76 -97 -206q-17 -134 48 -212q63 -76 179 -76z" />
<glyph unicode="H" horiz-adv-x="778" d="M781 655l-58 -11l-70 -571q44 -8 59 -12q12 -3 10 -18l-6 -43h-242l6 43q2 16 17 19l58 11l32 253h-386l-32 -253q71 -15 69 -30l-6 -43h-241l5 43q2 16 18 19l58 11l70 571q-49 9 -59 12q-11 3 -9 18l5 42h241l-5 -42q-2 -16 -13 -18q-3 -1 -11 -2.5t-22.5 -4 t-28.5 -5.5l-31 -247h386l31 247q-49 9 -59 12q-12 3 -10 18l5 42h242l-5 -42q-2 -16 -18 -19z" />
<glyph unicode="I" horiz-adv-x="294" d="M297 655l-58 -11l-70 -571q44 -8 59 -12q12 -3 10 -18l-6 -43h-241l5 43q2 16 18 19l58 11l70 571q-49 9 -59 12q-11 3 -9 18l5 42h241l-5 -42q-2 -16 -18 -19z" />
<glyph unicode="J" horiz-adv-x="445" d="M88 73q138 0 159 173l49 398q-17 3 -31.5 5.5t-23.5 4t-10 1.5q-15 3 -13 19l6 42h250l-6 -42q-2 -16 -17 -19l-58 -11l-49 -396q-22 -184 -158 -238q-44 -18 -96 -18q-49 0 -102 14q12 65 19 70q7 6 17 6q11 0 24 -4q17 -5 40 -5z" />
<glyph unicode="K" horiz-adv-x="682" d="M634 59q15 -3 13 -19l-5 -40h-235l5 40q2 15 16 18q2 0 7.5 1l16.5 3t23 4l-178 239q-15 20 -28 21q-18 2 -25 2h-44l-32 -255q6 -1 24.5 -4.5t31.5 -6.5q15 -3 13 -19l-5 -43h-241l5 43q2 16 18 19l58 11l70 571q-13 2 -26.5 5t-20 4.5t-9.5 1.5q-14 3 -12 19l5 42h241 l-5 -42q-2 -16 -18 -19q-55 -11 -58 -11l-30 -242h36q32 0 54 22l229 226q-23 5 -43 9q-12 3 -11 17l4 40h226l-3 -38q-1 -15 -17 -18q-2 0 -8.5 -2t-17.5 -4.5t-22 -5.5l-243 -240q-27 -25 -43 -32q21 -8 42 -36l193 -270q11 -2 22.5 -5t17.5 -4.5t9 -1.5z" />
<glyph unicode="L" horiz-adv-x="546" d="M512 156l-20 -156h-22h-9h-398h-73q5 34 6 43q2 16 17 19l59 11l70 571q-47 9 -56 11q-15 3 -13 18l5 43h73h96h1h72q-5 -34 -6 -43q-2 -15 -17 -18q-49 -11 -58 -11l-69 -562h258q11 52 12 57q5 17 23 17h49z" />
<glyph unicode="M" horiz-adv-x="943" d="M216 575q0 -27 -3 -49l-56 -453q53 -9 66 -12t12 -18l-5 -43h-239l5 43q2 16 18 19l58 11l70 571q-13 2 -26.5 5t-20 4.5t-9.5 1.5q-14 3 -12 19l5 42h143q16 0 20 -2q8 -4 12 -14l193 -441q7 -14 16 -52q10 21 30 53l296 440q6 10 16 14q5 2 20 2h144l-5 -42 q-2 -16 -18 -19l-58 -11l-71 -571q14 -3 27 -5.5t20 -4t9 -1.5q15 -3 13 -19l-5 -43h-239l5 43q2 16 17 19q4 1 13 2.5t24.5 4t30.5 4.5l56 453q1 11 8 48l-301 -448q-15 -23 -37 -23h-14q-24 0 -33 23z" />
<glyph unicode="N" horiz-adv-x="777" d="M582 160q0 22 3 49l54 434l-32 6l-24 4.5t-10 1.5q-14 3 -12 19l5 42h81h85h73l-5 -42q-2 -16 -18 -19l-58 -11l-80 -644h-48q-21 0 -33 18l-348 539q-2 -32 -4 -47l-54 -437q59 -11 66 -12q14 -3 12 -18l-5 -43h-238l5 43q1 15 17 18l58 12l71 570q-13 3 -26 5.5 t-20.5 4.5t-9.5 2q-15 3 -13 19l5 42h122q13 0 19 -3t13 -13z" />
<glyph unicode="O" horiz-adv-x="743" d="M725 358q-11 -83 -44 -148q-36 -70 -86 -116q-53 -48 -121 -75q-69 -27 -148 -27q-78 0 -140 27q-63 28 -103 75q-42 49 -58 116q-17 70 -7 148q11 83 44 148q36 70 86 116q55 50 121 76t147 26q82 0 141 -26q60 -26 102 -76q42 -52 58 -116q18 -73 8 -148zM625 358 q8 70 -3 118q-12 54 -40 89q-29 36 -74 56q-44 19 -102 19q-59 0 -107 -19q-49 -19 -87 -56q-38 -36 -62 -89q-26 -57 -33 -118q-8 -67 4 -118q12 -54 40 -89q28 -36 73 -55q46 -20 103 -20q56 0 107 20q50 20 87 55q38 36 62 89q25 54 32 118z" />
<glyph unicode="P" horiz-adv-x="584" d="M466 701q143 -47 123 -207q-12 -101 -88 -162q-81 -64 -207 -64h-101l-24 -195q2 0 9.5 -2t20.5 -4.5t26 -5.5q14 -3 12 -18l-5 -43h-240l5 43q1 15 17 18l58 12l71 570q-13 3 -26 5.5t-20.5 4.5t-9.5 2q-15 3 -13 19l5 42h270q69 0 117 -15zM492 495q9 68 -29 107 q-37 38 -123 38h-101l-37 -295h102q80 0 130 41q49 40 58 109z" />
<glyph unicode="Q" horiz-adv-x="743" d="M724 358q-6 -53 -22 -96q-18 -49 -40 -85q-24 -39 -56 -71q-31 -31 -70 -56l159 -198h-80q-16 0 -31 5q-11 4 -23 17l-109 137q-34 -10 -61 -14q-35 -5 -65 -5q-80 0 -141 27t-102 75q-42 49 -58 116q-17 70 -7 148q11 86 43 148q36 70 86 116q55 50 121 76t148 26 t141 -26q60 -26 102 -76q42 -52 58 -116q17 -70 7 -148zM625 358q8 67 -4 118q-12 54 -40 89q-29 37 -73 56t-103 19t-107 -19q-49 -19 -87 -56q-38 -36 -62 -89q-25 -54 -32 -118q-8 -70 3 -118q12 -54 40 -89t74 -55t102 -20t107 20q50 20 87 55q38 36 62 89q26 57 33 118 z" />
<glyph unicode="R" horiz-adv-x="635" d="M593 62q15 -3 13 -19l-6 -43h-18h-54h-32q-26 0 -36 21l-155 256q-7 11 -16 17q-10 5 -29 5h-64l-28 -226q47 -9 56 -11q15 -3 13 -19l-6 -43h-72h-96h-73q5 34 6 43q2 16 17 19l59 11l70 571q-47 9 -56 11q-15 3 -13 18l5 43h73h192q70 0 116 -13q47 -13 77 -40 q29 -26 40 -63q12 -40 6 -82q-5 -38 -21 -71q-15 -31 -42 -59q-28 -28 -61 -45q-37 -19 -78 -28q16 -10 28 -30l130 -212q33 -5 55 -11zM296 370q45 0 76 10q34 11 58 29q25 20 38 45q14 26 18 57q8 65 -30 97t-122 32h-96l-33 -270h91z" />
<glyph unicode="S" horiz-adv-x="515" d="M388 379q102 -50 89 -161q-12 -99 -82 -160q-75 -66 -186 -66q-40 0 -97 10q-48 8 -78 18l-28 10l23 180h48q16 0 18 -17q0 -20 -1 -49l-2 -44q73 -28 118 -28q43 0 75 10q28 9 49 27q42 35 50 95q7 57 -42 88q-23 14 -52 24q-94 31 -121 43t-50 35q-48 48 -37 134 q11 80 74 136q69 60 167 60q100 0 196 -40l-21 -165h-48q-16 0 -18 17q0 32 2 89q-63 19 -115 19q-64 0 -103 -32q-38 -30 -44 -80q-6 -51 44 -83q27 -16 52 -25q87 -30 120 -45z" />
<glyph unicode="T" horiz-adv-x="589" d="M602 716h13l-19 -158h-48q-19 0 -19 10v67h-169l-69 -562q5 -1 13 -3q10 -2 21 -4t17.5 -3t9.5 -2q10 -3 8 -18l-5 -43h-242l6 43q2 16 19 19q5 1 24 5t32 6l69 562h-169q-10 -44 -17 -67q-3 -10 -20 -10h-49l20 158h539h35z" />
<glyph unicode="U" horiz-adv-x="729" d="M684 716h73l-5 -42q-2 -16 -18 -19l-58 -11l-45 -363q-15 -125 -101 -207q-88 -82 -220 -82q-129 0 -198 82q-66 81 -51 207l44 363q-13 2 -26.5 5t-20 4.5t-9.5 1.5q-14 3 -12 19l5 42h250l-5 -42q-2 -16 -18 -19q-2 0 -10 -1.5t-24 -4t-33 -5.5l-45 -362 q-11 -93 32 -148q45 -57 132 -57t146 57q58 56 68 147l44 363q-17 3 -32 5.5t-23 4t-10 1.5q-15 3 -13 19l5 42h82h96z" />
<glyph unicode="V" horiz-adv-x="731" d="M520 716h238l-5 -43q-1 -15 -17 -18l-51 -12l-342 -643h-87l-183 643q-11 3 -22.5 5.5t-18.5 4.5t-9 2q-14 3 -12 18l5 43h238l-5 -43q-1 -14 -22 -19q-24 -6 -54 -11l127 -455q6 -20 14 -78q20 56 32 78l237 456q-13 2 -26.5 5t-20 4.5t-9.5 1.5q-14 3 -12 19z" />
<glyph unicode="W" horiz-adv-x="1078" d="M1064 716h42l-5 -42q-2 -16 -17 -19l-51 -11l-280 -644h-87l-115 546q-4 19 -5 36q-1 -3 -4 -9t-4 -9q-1 -2 -2 -6t-2 -7t-2 -5l-250 -546h-87l-121 644q-48 11 -50 11q-14 3 -12 19l5 42h243l-5 -42q-2 -16 -18 -19q-15 -3 -29 -5.5t-20.5 -4t-8.5 -1.5l78 -448 q5 -38 6 -62q14 43 23 62l229 498q3 6 14 15q8 7 22 7h28q26 0 30 -22l107 -498q4 -18 8 -60l5.5 16.5t4.5 14.5q6 20 10 29l188 448q-1 0 -8 1.5t-20 4t-27 5.5q-15 3 -13 19l5 42h195z" />
<glyph unicode="X" horiz-adv-x="735" d="M675 62q15 -3 13 -19l-6 -43h-263l5 43q2 16 18 19q1 0 11 2l20 4l27 5l-127 246q-4 -10 -11 -20l-179 -226q1 0 7.5 -1.5t20.5 -4t28 -5.5t12 -19l-5 -43h-258l6 43q2 16 17 19q1 0 8 1.5t25 4t35 5.5l234 295l-153 276q-17 3 -31.5 5.5t-23.5 4t-10 1.5q-15 3 -13 19 l5 42h255l-5 -42q-2 -16 -18 -19q-4 -1 -21 -4.5t-29 -5.5l122 -229q6 13 13 23l163 205q-5 1 -13 2.5t-20.5 4l-22.5 4.5q-15 3 -13 19l5 42h257l-5 -42q-1 -15 -15 -18q-15 -3 -70 -12l-220 -272l160 -299q17 -3 31.5 -5.5t23.5 -4t10 -1.5z" />
<glyph unicode="Y" horiz-adv-x="651" d="M438 716h241l-5 -42q-2 -15 -15 -18l-54 -12l-263 -359l-26 -212q1 0 8.5 -1.5l20 -4l27.5 -5.5q14 -3 12 -19l-5 -43h-72h-96h-72l5 43q2 16 17 19l59 11l26 212l-174 359q-11 3 -21 5t-18.5 3.5t-10.5 2.5q-14 3 -12 19l6 42h241l-6 -42q-2 -16 -18 -19 q-15 -3 -29 -5.5t-20 -4t-8 -1.5l106 -228q12 -29 21 -64q19 41 36 64l162 228q-1 0 -8 1.5t-20.5 4t-27.5 5.5t-12 19z" />
<glyph unicode="Z" horiz-adv-x="600" d="M605 648l-475 -569h333q4 20 8 39.5t6 28t2 10.5q6 17 23 17h48l-11 -95l-10 -79h-536l5 38q1 13 13 28l476 571h-321q-4 -19 -8 -39.5t-5.5 -28.5t-2.5 -10q-6 -17 -23 -17h-48l11 96l10 78h524l-4 -36q-1 -15 -15 -32z" />
<glyph unicode="[" horiz-adv-x="290" d="M8 -144l112 910h184l-4 -34q-2 -12 -9 -18t-19 -6h-84l-98 -794h85q11 0 17 -6t4 -18l-4 -34h-184z" />
<glyph unicode="\" horiz-adv-x="321" d="M22 736h38q19 0 28 -8q11 -9 15 -24l209 -749h-37q-15 0 -28 9q-13 8 -17 26z" />
<glyph unicode="]" horiz-adv-x="296" d="M-13 -110q1 10 9 18q6 6 19 6h84l98 794h-85q-10 0 -17 7q-5 7 -4 17l4 34h184l-112 -910h-184z" />
<glyph unicode="^" horiz-adv-x="455" d="M239 716h58l139 -322h-64q-9 0 -14 4q-6 4 -9 12l-76 176q-1 2 -4.5 10.5t-4.5 12.5q-4 14 -5 21q-7 -18 -24 -44l-119 -176q-4 -7 -11 -12q-5 -4 -17 -4h-68z" />
<glyph unicode="_" horiz-adv-x="552" d="M471 -82l-7 -60h-394l7 60h394z" />
<glyph unicode="`" horiz-adv-x="265" d="M136 724q18 0 24 -5q8 -6 13 -17l59 -120h-51q-10 0 -16 3q-5 3 -12 11l-101 128h84z" />
<glyph unicode="a" horiz-adv-x="517" d="M345 1q-30 0 -30 31l9 101q-57 -100 -131 -129q-24 -10 -53 -10q-67 0 -99.5 49.5t-32.5 128.5q0 138 92 239q94 103 228 103q72 0 124 -23l-52 -417q1 0 27 -5t30 -6q15 -3 15 -19v-43h-81h-46zM337 268l22 172q-9 8 -22 8h-21q-90 0 -155 -78q-65 -79 -65 -182 q0 -120 77 -120q49 0 93 57q43 55 71 143z" />
<glyph unicode="b" horiz-adv-x="544" d="M520 257v-2v-1q-7 -61 -31 -111q-23 -50 -57 -82q-33 -32 -77 -50q-43 -18 -90 -18q-40 0 -95.5 7t-90.5 14l-35 7l2 8l8 73l69 562q-56 9 -62 11q-15 3 -13 18l5 44h79h3h87l-37 -303q35 36 79 58q44 23 96 23q44 0 78 -17q33 -17 54 -49q22 -34 29 -81q7 -44 -1 -111z M371 112q22 23 37 60q13 33 19 77q0 1 0.5 4t0.5 4q6 51 2 85q-4 35 -18 58q-14 22 -36 33q-24 11 -54 11q-43 0 -78 -20q-34 -19 -67 -57l-15 -118l-16 -127l-5 -43q57 -13 98 -16q3 0 9.5 -0.5t9.5 -0.5h6q32 2 56 13q29 14 51 37z" />
<glyph unicode="c" horiz-adv-x="442" d="M398 71q-74 -78 -197 -78q-97 0 -150 69q-56 71 -41 192q15 118 84 187q74 74 186 74q60 0 146 -37l-17 -132h-40q-13 0 -15 14q-1 3 1 38q1 21 1 33q-23 8 -35 9q-25 4 -56 4q-26 0 -57 -13q-29 -12 -51 -37q-46 -52 -56 -140q-11 -90 23 -142q33 -50 101 -50 q63 0 117 42q11 8 20 8q11 0 15 -8z" />
<glyph unicode="d" horiz-adv-x="544" d="M260 516q84 0 131 -60l26 208q-45 7 -66 11q-15 3 -13 19l6 43h171l-82 -664q13 -2 26.5 -5t20 -4.5t9.5 -1.5q14 -3 12 -19l-5 -43h-125q-19 0 -22 18v62q-83 -87 -181 -87q-89 0 -131 66q-44 68 -29 193q13 113 82 188q69 76 170 76zM207 65q77 0 145 77l31 244 q-36 60 -110 60t-117 -50q-44 -52 -56 -144q-18 -143 53 -176q24 -11 54 -11z" />
<glyph unicode="e" horiz-adv-x="436" d="M405 94q-47 -49 -95 -75t-118 -26q-132 0 -173 120q-13 36 -13 85q0 123 71 217q74 98 192 98q51 0 87.5 -20t51.5 -56q9 -21 9 -39q0 -73 -63 -111q-36 -23 -99 -39q-57 -15 -162 -26v-11v-11q0 -137 117 -137q59 0 102 33q30 23 38 28t16 5q10 0 17 -8zM337 394 q0 26 -21 40.5t-52 14.5q-93 0 -140 -102q-16 -32 -23 -66q71 8 124 22q43 11 71 26q41 24 41 65z" />
<glyph unicode="f" horiz-adv-x="398" d="M358 727q36 0 62 -10l-7 -44q-2 -15 -33 -15h-16q-103 0 -116 -115l-5 -47h146l-8 -64h-144q-9 -79 -28 -235.5t-29 -234.5q-9 -67 -48.5 -105.5t-108.5 -38.5q-36 0 -60 10l10 48q3 10 17 10h19q40 0 58.5 18.5t23.5 58.5l57 467l-55 7q-22 6 -21 23l4 36h80l6 50 q10 82 61 131.5t135 49.5z" />
<glyph unicode="g" horiz-adv-x="487" d="M419 365q0 -25 -6 -45q-8 -26 -14 -37q-12 -22 -19 -32l-18 -30q-5 -8 -14 -31q-6 -15 -6 -34q0 -22 10 -38q7 -11 23 -35q8 -12 22 -40q10 -20 10 -50q0 -36 -16 -67q-17 -32 -47 -56q-33 -26 -74 -39q-45 -14 -99 -14q-43 0 -79 9t-61 25q-26 17 -39 40q-14 23 -14 51 q0 40 21 68q22 29 54 47q33 18 76 27t87 9q12 0 36 -2q22 -2 35 -4q-3 6 -7 20q-3 10 -3 22q0 14 5 32q3 11 16 37q-17 -12 -43 -20q-22 -7 -53 -7q-26 0 -54 10q-22 8 -44 28q-20 18 -30 46q-11 30 -11 65q0 37 13 70q15 37 38 62q26 28 63 44q39 17 87 17q54 0 95 -26h138 l-4 -30q-1 -7 -6 -15q-4 -7 -14 -9l-63 -11q4 -12 7 -27q2 -9 2 -30zM326 -14q0 16 -2 24q-5 17 -7 22q-28 5 -50 6q-32 2 -45 2q-43 0 -71 -7q-32 -8 -50 -19q-21 -13 -29 -28q-9 -15 -9 -33q0 -35 30 -55q29 -19 86 -19q33 0 60 9q30 10 47 23q20 15 30 34t10 41zM226 227 q27 0 48 12q22 13 35 31q14 20 21 43q8 26 8 48q0 45 -22 67t-62 22q-25 0 -47 -11q-21 -11 -35 -29t-21 -42q-7 -22 -7 -49q0 -44 22 -69q22 -23 60 -23z" />
<glyph unicode="h" horiz-adv-x="581" d="M530 61q15 -3 13 -18l-5 -43h-161l39 322q15 121 -92 121q-74 0 -145 -70l-25 -198l-21 -175h-89l12 98l69 565q-17 3 -31.5 5.5t-23.5 4.5t-10 2q-15 3 -13 19l5 42h171l-36 -298q80 76 172 76q83 0 120 -52q37 -50 26 -140l-31 -249q13 -3 26 -5.5t20.5 -4.5t9.5 -2z " />
<glyph unicode="i" horiz-adv-x="249" d="M193 62q15 -3 13 -19l-5 -43h-162l9 73l45 361q-47 9 -56 11q-15 3 -13 18l5 43h162l-54 -433q47 -9 56 -11zM228 690q4 -10 2 -25q-1 -10 -8 -24q-5 -10 -17 -20t-22 -14q-13 -5 -25 -5q-11 0 -23 5q-11 5 -19 14q-8 10 -11 20q-3 12 -2 24t8 25q6 13 16 21t22 13 q13 5 25 5t24 -5q11 -5 18 -13q8 -9 12 -21z" />
<glyph unicode="j" horiz-adv-x="283" d="M284 690q4 -10 2 -25q-1 -10 -8 -24q-5 -10 -17 -20t-22 -14q-13 -5 -25 -5t-24 5q-10 4 -18 14q-9 10 -11 20q-3 13 -2 24q1 12 8 25q6 13 16 21t22 13q16 6 25 6q10 0 24 -6q11 -5 18 -13q8 -9 12 -21zM86 -171q-30 -11 -63 -11q-36 0 -60 10l10 48q3 10 17 10h19 q40 0 58 18q20 20 24 59l57 470q-10 2 -55 12q-15 3 -13 18l5 43h72h89l-66 -544q-12 -100 -94 -133z" />
<glyph unicode="k" horiz-adv-x="525" d="M518 507h6l-5 -43q-1 -15 -15 -18q-19 -4 -63 -12l-134 -126q-20 -20 -32 -26q15 -11 26 -32l119 -177l25 -5q5 -1 14 -2.5t13 -2.5t9 -3t6.5 -6.5t0.5 -10.5l-5 -43h-95q-20 0 -31 17l-141 208q-6 11 -12.5 14t-22.5 3h-25q-5 -41 -15 -121.5t-15 -120.5h-90 q14 111 41 332.5t41 331.5q-13 2 -26.5 5t-20 4.5t-9.5 1.5q-14 3 -12 19l5 43h161l-53 -434h23q17 0 33 14l129 123q-3 1 -11 2t-12 2t-9 3.5t-7 6.5t-1 10l5 43h205z" />
<glyph unicode="l" horiz-adv-x="247" d="M190 61q15 -3 13 -18l-5 -43h-162l82 663q-13 3 -26 5.5t-20.5 4.5t-9.5 2q-14 3 -12 19l5 42h161l-82 -663q14 -3 26.5 -5.5t20 -4.5t9.5 -2z" />
<glyph unicode="m" horiz-adv-x="843" d="M444 409q23 45 67.5 75.5t100.5 30.5q87 0 125 -50t27 -142l-31 -250q14 -3 27 -5.5t20 -4t9 -1.5q15 -3 13 -19l-5 -43h-162l40 323q15 121 -87 121q-51 0 -84.5 -34.5t-39.5 -86.5l-39 -323h-89l39 323q15 121 -81 121q-62 0 -121 -66l-46 -378h-89l53 434 q-13 2 -26.5 5t-20 4.5t-9.5 1.5q-14 3 -12 19l5 43h125q19 0 22 -19v-52q74 79 153 79q99 0 116 -106z" />
<glyph unicode="n" horiz-adv-x="578" d="M524 61q15 -3 13 -18l-5 -43h-162l40 322q15 122 -92 122q-72 0 -145 -71l-46 -373h-89l53 434q-13 2 -26.5 5t-20 4.5t-9.5 1.5q-14 3 -12 19l5 43h125q19 0 22 -19v-55q85 82 178 82q81 0 119 -51.5t27 -140.5l-31 -250q14 -3 26.5 -5.5t20 -4.5t9.5 -2z" />
<glyph unicode="o" horiz-adv-x="516" d="M282 514q56 0 98 -18q44 -19 70 -52q28 -35 38 -83t3 -107q-7 -60 -30 -108q-22 -48 -58 -82q-37 -36 -82 -53q-47 -18 -103 -18t-98 18q-41 18 -69 53q-29 37 -39 82q-11 51 -4 108q7 56 31 107q23 50 58 83t83 52q46 18 102 18zM227 63q75 0 118 50q44 51 54 140 q11 93 -19 141q-31 51 -106 51q-39 0 -68 -13q-27 -12 -51 -38q-21 -22 -35 -60t-20 -81q-5 -39 0 -81q5 -37 20 -59q16 -24 43 -37q26 -13 64 -13z" />
<glyph unicode="p" horiz-adv-x="562" d="M195 428q83 88 181 88q89 0 131 -66q44 -70 29 -194q-13 -113 -81 -187q-69 -76 -163 -76q-93 0 -139 59l-19 -150l3 -1q3 -1 10 -2.5t14 -2.5q23 -4 29 -6q15 -3 13 -18l-5 -44h-234l6 44q1 15 17 18l58 12l66 532q-13 2 -26.5 5t-20 4.5t-9.5 1.5q-15 3 -13 19l6 42h72 h53q18 0 21 -18zM162 122q37 -60 109 -60q73 0 117 51q44 52 56 144q22 187 -106 187q-78 0 -146 -77z" />
<glyph unicode="q" horiz-adv-x="519" d="M348 75q-80 -81 -176 -81q-90 0 -132 66q-43 67 -28 192v2q15 122 88 194q71 68 168 68q75 0 185 -22l35 -6l-72 -586q42 -7 63 -11q14 -3 12 -18l-5 -43h-250l5 43q1 15 15 18q4 1 13 2.5t26 4t32 4.5zM210 65q78 0 146 77l35 288q-66 17 -117 17h-6q-101 -5 -144 -110 q-14 -34 -17 -58l-3 -27q-22 -187 106 -187z" />
<glyph unicode="r" horiz-adv-x="392" d="M151 506q14 0 19 -5t5 -19l-3 -79q69 112 168 112q40 0 67 -17l-20 -67q-5 -13 -14 -13t-24 5t-40 5q-87 0 -143 -106l-39 -322h-89l53 433q-13 3 -26 5.5t-20.5 4.5t-9.5 2q-14 3 -12 18l5 43h123z" />
<glyph unicode="s" horiz-adv-x="415" d="M261 514q55 0 129 -26l-4 -35l-12 -95h-39q-14 0 -16 14q0 24 2 66q-41 10 -76 10h-1q-44 0 -72 -21q-29 -21 -32 -46q-3 -26 7 -39q15 -22 53 -35l60 -20q38 -14 46 -18q24 -11 39 -25q38 -33 30 -89q-9 -73 -64 -116q-56 -46 -139 -46q-86 0 -160 27l16 132h35 q13 0 14 -12q0 -24 -2 -64q42 -20 100 -20q50 0 81 25q29 23 32 51t-6 42q-10 16 -27 24q-22 11 -40 17q-72 24 -89 32q-28 13 -43 27q-37 34 -29 94q8 62 59 102q54 44 148 44z" />
<glyph unicode="t" horiz-adv-x="323" d="M159 -8q-59 0 -88 34q-29 33 -21 96l38 310h-61q-8 0 -13 5q-4 5 -3 15l4 35l84 11l40 156q1 7 8 12t15 5h45l-22 -175h145l-8 -64h-145l-37 -304q-5 -32 10 -48q14 -15 38 -15q10 0 24 4q11 3 19 8q10 6 14 8q8 4 10 4q7 0 11 -9l21 -42q-28 -23 -60 -34 q-35 -12 -68 -12z" />
<glyph unicode="u" horiz-adv-x="575" d="M233 63q76 0 146 70l37 301q-3 0 -9.5 1.5t-20 4.5t-26.5 5q-15 3 -13 19l5 42h72h89l-53 -433q14 -3 27 -5.5t20 -4t9 -1.5q15 -3 13 -19l-5 -43h-126q-18 0 -21 18l-1 55q-82 -81 -178 -81q-81 0 -120 52q-37 49 -26 140l31 250q-13 2 -26.5 5t-20 4.5t-9.5 1.5 q-14 3 -12 19l5 42h161l-40 -322q-8 -57 16 -90q22 -31 76 -31z" />
<glyph unicode="v" horiz-adv-x="560" d="M541 506h34l-5 -42q-2 -16 -17 -19l-50 -10l-231 -435h-80l-124 435q-2 0 -11 2.5t-16 3.5q-17 4 -21 4q-15 3 -13 19l5 42h227l-5 -42q-2 -16 -17 -19q-2 0 -9.5 -1.5t-20.5 -4t-27 -5.5l74 -272q5 -20 10 -72q17 50 29 72l141 272q-3 1 -10 2.5t-20.5 4t-25.5 4.5 q-14 3 -12 19l5 42h190z" />
<glyph unicode="w" horiz-adv-x="834" d="M623 506h226l-5 -42q-2 -16 -18 -19q-2 0 -10 -1.5t-16 -3.5q-5 -1 -9.5 -2t-7 -1.5l-5 -1t-3.5 -0.5l-194 -435h-70q-13 0 -16 17l-70 343q-2 7 -4 25q0 4 -0.5 11.5t-1.5 10.5q-1 -3 -3 -8t-3 -9t-2 -7q-3 -10 -9 -23l-156 -343q-8 -17 -22 -17h-67l-88 435q-4 0 -16 3 l-33 7q-14 3 -12 19l5 42h226l-5 -42q-2 -16 -18 -19q-3 0 -9.5 -1.5t-20 -4.5t-26.5 -5l47 -272q5 -50 5 -68q13 33 28 68l147 328q7 18 27 18h39q19 0 23 -18l64 -328q1 -3 9 -68q7 26 24 68l116 272q-1 0 -9 1.5t-21 4t-28 5.5t-13 19z" />
<glyph unicode="x" horiz-adv-x="553" d="M444 71q24 -6 44 -9q17 -3 15 -19l-5 -43h-199l5 43q2 16 18 19q1 0 4.5 0.5t9.5 1.5l12 2l-79 151q-6 -16 -14 -26l-99 -123q6 -2 11 -3q15 -3 18 -3q15 -3 13 -19l-6 -43h-198l5 43q2 16 17 19q3 1 11.5 2t13.5 2l10 2t9.5 2t5.5 1l151 189l-99 174q-12 2 -23.5 5 t-17.5 4.5t-9 1.5q-15 3 -13 19l5 42h199l-6 -42q-2 -16 -17 -19l-22 -5l73 -137q8 17 16 28l87 109q-6 2 -15 3q-3 0 -5 0.5t-4 0.5l-1 1q-15 3 -13 19l5 42h199l-6 -42q-2 -16 -18 -19q-6 -1 -23.5 -4.5t-29.5 -6.5l-141 -170z" />
<glyph unicode="y" horiz-adv-x="559" d="M538 506h36l-5 -42q-2 -16 -17 -19q-1 0 -4.5 -1t-10 -2t-12.5 -2t-12.5 -2.5t-10 -2.5t-4.5 -1l-323 -584q-12 -22 -35 -22h-66l117 202l-128 406q-40 8 -44 9q-15 3 -13 19l5 42h227l-5 -42q-2 -16 -17 -19q-40 -8 -56 -11l80 -265q4 -13 8 -45q12 30 20 46l142 264 q-26 5 -53 11q-14 3 -12 19l5 42h188z" />
<glyph unicode="z" horiz-adv-x="458" d="M127 506h326l-5 -38q-1 -17 -17 -34l-318 -364h225q9 46 14 66q4 12 17 12h35l-18 -148h-387l5 37q2 16 16 32l321 367h-217q-13 -59 -13 -60q-5 -13 -16 -13h-36l18 143h50z" />
<glyph unicode="{" horiz-adv-x="296" d="M77 212q4 30 -11 52q-14 20 -48 20l6 54q34 0 54 20q18 18 23 52q3 28 2 50q-1 8 -1 24t-1 24q-1 16 -3 50q-1 23 2 51q4 35 18 63q14 29 38 50t55 33q29 11 73 11h27l-5 -39q-2 -11 -9 -15t-13 -4h-10q-39 0 -64 -25t-31 -68q-3 -29 -3 -54q0 -19 2 -51t2 -49 q0 -25 -3 -50q-3 -20 -10 -35q-8 -18 -19 -29q-11 -12 -27 -22t-32 -14q16 -4 29 -14q13 -9 21 -22q9 -14 12 -29q4 -22 2 -34q-2 -19 -10 -50q-5 -21 -14 -49q-8 -26 -14 -51q-8 -33 -10 -54q-6 -43 13 -68q20 -26 58 -26h10q8 0 13 -4q6 -5 5 -14l-5 -40h-27q-42 0 -70 11 t-47 33t-25 50q-7 33 -3 64q3 29 10 50q2 8 7 25t8 25t8 24.5t7 24.5q7 22 10 49z" />
<glyph unicode="|" horiz-adv-x="206" d="M68 766h69v-938h-69v938z" />
<glyph unicode="}" horiz-adv-x="303" d="M192 212q-3 -28 -2 -49q0 -8 1 -24.5t2 -24.5t2 -25t1 -25q1 -16 -3 -50q-5 -36 -18 -64t-37 -50q-22 -20 -55 -33q-29 -11 -73 -11h-27l5 40q1 9 9 14t13 5h10q39 0 64 25t31 68q3 28 3 54q0 19 -2 51t-2 49q0 24 3 50q4 22 9 34q6 13 20 29q12 14 26 22q16 10 32 14 q-15 4 -28 14q-10 8 -21 22q-11 16 -13 29q-3 19 -1 35q2 17 10 49q7 26 14 50q9 29 14 50q8 33 10 54q6 43 -14 69q-19 25 -57 25h-10q-8 0 -13 4q-6 5 -5 15l5 39h26q44 0 71 -11q28 -11 47 -33q17 -20 25 -50q8 -28 3 -63q-3 -23 -11 -51q-5 -17 -15 -49q-2 -8 -7 -24.5 t-7 -24.5q-7 -21 -10 -50q-5 -32 11 -52q15 -20 48 -20l-6 -54q-35 0 -54 -20q-20 -21 -24 -52z" />
<glyph unicode="~" horiz-adv-x="571" d="M376 306q31 0 53 22q21 22 26 56h72q-4 -32 -17 -62q-12 -28 -32 -48q-19 -19 -47 -30q-31 -12 -59 -12q-24 0 -50 8q-9 3 -47 18q-15 6 -43 18q-19 8 -39 8q-33 0 -53 -20q-22 -22 -26 -57h-72q4 31 17 61q12 28 32 48q22 22 47 32q25 11 59 11q29 0 50 -8 q32 -12 47 -18t43 -18q21 -9 39 -9z" />
<glyph unicode="&#xa1;" horiz-adv-x="231" d="M20 -172l33 271q4 30 6 44q2 17 8 43q3 14 9 44q4 22 11 50h61q0 -9 -0.5 -26t-0.5 -24q0 -16 -2 -44q-1 -7 -2 -21.5t-1 -21.5q-2 -30 -4 -44l-34 -271h-84zM75 452q2 14 7 25q4 8 16 20q8 8 21 13q11 4 26 4q14 0 23 -4q13 -5 19 -13q8 -10 11 -20q3 -13 2 -25 q-1 -10 -8 -24q-4 -8 -16 -20q-9 -9 -22 -14t-25 -5t-24 5q-10 4 -18 14q-9 10 -11 20q-3 10 -1 24z" />
<glyph unicode="&#xa2;" horiz-adv-x="450" d="M386 103l21 -32q-70 -75 -191 -78l-16 -86q-1 -8 -10 -17q-7 -7 -18 -7h-33l22 115q-64 14 -101 63q-56 71 -41 192q15 117 85 187q61 63 156 72l17 90q3 11 10 18q8 8 18 8h33l-22 -116q53 -8 119 -36l-16 -130h-40q-13 0 -15 14q-1 4 2 70q-27 9 -35 10q-5 1 -10.5 1.5 t-10.5 1.5t-7 1l-1 -1l-72 -380v-1h20q18 0 39 7q19 7 37 17q4 3 8.5 6t9.5 6.5t7 5.5q11 8 21 8t14 -9zM111 253q-11 -92 22 -142q16 -23 42 -37q5 20 71 366q-80 -18 -116 -107q-13 -34 -19 -80z" />
<glyph unicode="&#xa3;" horiz-adv-x="580" d="M33 336q1 14 10 22q9 9 24 9h67l16 130q6 47 24 89q18 41 50 72q32 30 75 48t98 18q36 0 68 -10q29 -11 50 -27q21 -17 36 -39q14 -21 24 -49l-39 -23q-5 -2 -11 -4q-4 -1 -10 -1q-7 0 -13 3q-7 4 -11 10q-3 4 -8.5 12t-8.5 12q-7 10 -21 20q-11 8 -27 14q-17 6 -38 6 q-30 0 -57 -11q-26 -11 -44 -30t-30 -47q-10 -22 -15 -61l-16 -132h220l-4 -36q-1 -9 -10 -16q-10 -8 -19 -8h-195l-15 -121q-5 -39 -22 -65q-20 -31 -45 -50q11 2 29 4q20 2 29 2h338l-4 -38q-1 -7 -5 -14q-3 -6 -9 -12t-13 -9q-10 -4 -17 -4h-482l8 58q19 5 34 13 q16 9 30 21q14 13 23 30q9 18 12 40l18 145h-98z" />
<glyph unicode="&#xa4;" horiz-adv-x="529" d="M86 336q3 28 15 54q12 25 28 47l-67 77l51 44l66 -76q24 15 51 24t56 9q32 0 53 -8q29 -11 45 -23l85 76l39 -46l-84 -76q11 -19 18 -47q5 -20 1 -55q-3 -31 -14 -54q-12 -25 -29 -47l67 -75l-51 -46l-67 76q-24 -15 -51 -24q-24 -8 -56 -8q-31 0 -52 8q-32 12 -45 22 l-86 -76l-39 46l85 76q-11 20 -17 47q-5 23 -2 55zM152 336q-3 -22 3 -43q6 -20 20 -36q13 -15 33 -24t43 -9t45 9t39 24q18 16 29 36q11 19 14 43q3 21 -4 44q-6 20 -20 36q-14 15 -33 24t-43 9t-45 -9q-19 -8 -38 -24q-16 -13 -29 -36q-11 -19 -14 -44z" />
<glyph unicode="&#xa5;" horiz-adv-x="568" d="M43 312h153l-154 404h74q12 0 20 -6q6 -5 11 -16l103 -283q1 -4 3 -10.5t3 -12t2 -9.5q4 -21 5 -29q2 5 6 14.5t6 14.5q7 17 15 32l172 283q3 6 15 16q7 6 21 6h75l-254 -404h154l-7 -50h-170l-6 -53h170l-6 -51h-170l-20 -158h-89l19 158h-170l6 51h170l7 53h-170z" />
<glyph unicode="&#xa6;" horiz-adv-x="207" d="M121 766h69l-49 -396h-69zM55 226h69l-49 -398h-69z" />
<glyph unicode="&#xa7;" horiz-adv-x="468" d="M425 632q-8 -11 -20 -11q-7 0 -16 6q-10 7 -22 12q-24 11 -31 13q-15 5 -44 5q-24 0 -44 -6q-19 -6 -35 -17q-13 -9 -23 -24q-9 -14 -11 -30q-3 -17 9 -33q10 -14 28 -26q14 -9 43 -22q2 -1 49 -23q28 -13 49 -25q23 -13 41 -31t27 -41t6 -53q-5 -41 -29 -73t-68 -51 q23 -19 35 -42q13 -25 8 -60q-5 -36 -20 -64q-18 -32 -43 -52q-30 -23 -64 -34q-41 -13 -84 -13q-52 0 -93 18q-43 19 -68 44l25 34q5 7 11 10t14 3q11 0 18 -6q4 -3 23 -16q12 -8 34 -16q20 -7 52 -7q24 0 45 6t36 18q13 10 23 27q9 15 12 34q3 22 -8 39q-12 18 -29 29 q-27 16 -44 24q-7 3 -15.5 6.5t-19 8t-16.5 6.5q-17 7 -51 24q-24 12 -42 30q-20 20 -28 41q-10 27 -6 55q4 38 30 70q25 31 74 49q-24 21 -35 45q-12 28 -8 64q3 27 19 56q15 27 41 47q27 20 60 32q34 12 78 12q48 0 88 -16q36 -14 63 -43zM120 363q-3 -25 12 -43 q13 -15 41 -32q22 -13 57 -28q26 -11 60 -29q27 13 43 32q14 17 17 42q2 21 -3 32q-6 14 -18 26q-13 13 -28 21q-11 6 -35 18q-12 6 -38 18q-4 2 -12 5.5t-14.5 6.5t-12.5 6q-37 -16 -51 -33q-15 -18 -18 -42z" />
<glyph unicode="&#xa8;" horiz-adv-x="389" d="M172 644q-1 -11 -7 -21t-14 -17t-20 -12t-22 -5q-11 0 -21 5q-8 4 -16 12q-7 7 -10 17q-3 11 -2 21q2 12 7 22q7 12 15 19q10 8 19 12q12 5 21 5q12 0 22 -5q8 -4 16 -12t11 -19q3 -9 1 -22zM352 644q-1 -11 -7 -21q-5 -9 -15 -17t-19 -12q-12 -5 -22 -5q-12 0 -22 5 q-11 5 -16 12q-8 10 -10 17q-3 11 -2 21t8 22q8 14 14 19q10 8 19 12q12 5 22 5q12 0 22 -5q8 -4 16 -12q6 -6 10 -19q3 -12 2 -22z" />
<glyph unicode="&#xa9;" horiz-adv-x="790" d="M495 232q3 2 7 4t6 2q5 0 7 -2l2 -2q2 -1 3 -2l26 -32q-35 -35 -76 -52q-44 -18 -102 -18q-48 0 -87 17q-35 16 -63 48q-26 30 -36 72q-10 41 -4 92q6 50 29 93q23 44 56 72q36 31 78 47q45 17 93 17q53 0 90 -17q33 -15 61 -45l-27 -32q-4 -4 -7 -6q-5 -3 -11 -3 q-8 0 -14 5q-13 11 -18 13q-7 4 -30 12q-18 6 -48 6q-38 0 -65 -11q-31 -12 -52 -32q-19 -18 -36 -52q-16 -31 -20 -67q-5 -39 3 -69t23 -50q17 -22 42 -32q24 -10 56 -10q30 0 41 2q15 3 29 8q6 2 23 12zM29 358q5 47 25 97q17 44 48 88q29 42 66 74q38 33 81 57 q41 23 92 37q46 13 98 13q53 0 96 -13q47 -14 83 -37t67 -57q30 -33 48 -74q19 -42 26 -88q7 -44 1 -97q-6 -47 -25 -97q-17 -45 -47 -87q-28 -40 -67 -74q-37 -33 -81 -57q-41 -23 -92 -37q-46 -13 -98 -13q-53 0 -96 13q-46 14 -82 37t-67 57q-26 29 -48 74q-19 40 -27 87 q-7 44 -1 97zM79 358q-6 -42 1 -86q6 -41 22 -76q18 -39 41 -65q29 -32 57 -50q30 -19 72 -32q36 -11 83 -11q67 0 127 25q63 26 109 68q49 44 80 102q33 61 40 125q5 41 -1 86q-6 42 -22 77q-17 36 -41 65q-26 31 -58 51q-30 19 -72 32q-36 11 -83 11q-68 0 -127 -25 q-60 -25 -108 -69q-49 -44 -80 -102q-33 -61 -40 -126z" />
<glyph unicode="&#xaa;" horiz-adv-x="345" d="M285 420h-30q-9 0 -13 3t-7 12l-3 24q-11 -9 -26 -18q-14 -8 -26 -14q-15 -7 -27 -9q-10 -2 -32 -2q-21 0 -34 4q-16 5 -27 16t-15 25q-5 18 -3 35t14 34q13 17 35 30q23 13 61 22q35 8 91 10l2 18q4 31 -8 47q-12 15 -42 15q-20 0 -32 -4q-13 -4 -23 -10q-7 -4 -17 -10 q-7 -4 -16 -4q-6 0 -12 4q-4 3 -6 8l-8 22q29 24 60 36q29 11 68 11q27 0 47 -9q23 -11 33 -23q14 -18 18 -36q4 -20 1 -47zM147 462q25 0 45 9q21 10 40 27l6 52q-42 -2 -60 -5q-21 -4 -41 -11q-17 -8 -23 -15q-8 -9 -9 -19q-3 -20 10 -30q11 -8 32 -8z" />
<glyph unicode="&#xab;" horiz-adv-x="394" d="M26 259l2 12l148 194l28 -14q6 -3 9 -9q3 -7 2 -12q-2 -9 -7 -16l-96 -131q-10 -13 -16 -18q9 -12 12 -18l63 -131q0 -1 1.5 -3.5t1.5 -4.5v-9q-2 -15 -16 -21l-31 -14zM174 259l2 12l148 194l28 -14q6 -3 9 -9q3 -7 2 -12q-2 -9 -7 -16l-96 -131q-10 -13 -16 -18 q9 -12 12 -18l63 -131q0 -1 1.5 -3.5t1.5 -4.5v-9q-2 -14 -16 -20l-31 -14z" />
<glyph unicode="&#xac;" horiz-adv-x="536" d="M54 370h430l-26 -212h-76l18 144h-354z" />
<glyph unicode="&#xad;" horiz-adv-x="360" d="M62 338h247l-9 -76h-248z" />
<glyph unicode="&#xae;" horiz-adv-x="790" d="M29 358q5 47 25 97q17 44 48 88q29 42 66 74q38 33 81 57q41 23 92 37q46 13 98 13q53 0 96 -13q47 -14 83 -37t67 -57q30 -33 48 -74q19 -42 26 -88q7 -44 1 -97q-6 -47 -25 -97q-17 -45 -47 -87q-28 -40 -67 -74q-37 -33 -81 -57q-41 -23 -92 -37q-46 -13 -98 -13 q-53 0 -96 13q-46 14 -82 37t-67 57q-26 29 -48 74q-19 40 -27 87q-7 44 -1 97zM79 358q-6 -42 1 -86q6 -41 22 -76q18 -39 41 -65q29 -32 57 -50q30 -19 72 -32q36 -11 83 -11q67 0 127 25q63 26 109 68q49 44 80 102q33 61 40 125q5 41 -1 86q-6 42 -22 77q-17 36 -41 65 q-26 31 -58 51q-30 19 -72 32q-36 11 -83 11q-68 0 -127 -25q-60 -25 -108 -69q-49 -44 -80 -102q-33 -61 -40 -126zM317 313l-22 -177h-78l55 446h144q87 0 124 -31q38 -31 30 -93q-6 -48 -37 -80q-32 -33 -85 -45q5 -3 13 -13q6 -7 10 -17l93 -167h-74q-17 0 -23 12 l-82 152q-4 7 -9 10q-6 3 -19 3h-40zM324 370h58q31 0 47 5q21 6 33 16q13 10 20 24q6 11 9 33q3 19 0 33q-3 13 -13 23q-9 9 -27 14q-15 4 -43 4h-66z" />
<glyph unicode="&#xaf;" horiz-adv-x="400" d="M71 674h287l-7 -58h-287z" />
<glyph unicode="&#xb0;" horiz-adv-x="402" d="M47 564q5 35 20 63q16 29 41 51q26 22 56 34q34 13 66 13q31 0 62 -13q27 -11 48 -34q19 -20 28 -51t5 -63q-5 -34 -20 -62q-16 -29 -41 -51q-28 -24 -56 -35q-32 -12 -66 -12t-63 12q-24 10 -47 35q-19 20 -28 51t-5 62zM110 563q-3 -21 3 -39q7 -21 17 -32 q13 -14 29 -21q19 -8 38 -8t40 8q19 7 34 21q16 15 25 32q10 21 13 39t-3 40q-4 18 -17 32q-13 15 -29 22q-15 7 -38 7q-22 0 -40 -7q-17 -6 -34 -22q-13 -12 -25 -32q-10 -17 -13 -40z" />
<glyph unicode="&#xb1;" horiz-adv-x="543" d="M349 601l-23 -188h204l-9 -68h-203l-23 -184h-73l23 184h-203l9 68h202l23 188h73zM13 108h479l-8 -68h-479z" />
<glyph unicode="&#xb2;" horiz-adv-x="332" d="M125 502q30 8 46 8h78q4 23 6 27q3 10 13 10h27l-11 -97h-256l3 22q2 15 14 26l124 110q67 60 73 104q3 27 -10 40q-14 14 -36 14q-43 0 -64 -46q-10 -14 -24 -14h-9l-35 6q13 52 52 80q36 26 89 26q52 0 80 -28t22 -76t-59 -100q-4 -4 -9.5 -9t-12 -11t-10.5 -9z" />
<glyph unicode="&#xb3;" horiz-adv-x="316" d="M195 818q27 0 45 -7q19 -7 33 -20q13 -13 19 -29q7 -19 4 -38q-7 -64 -70 -86q30 -9 46 -29q15 -20 11 -51q-3 -28 -16 -48q-13 -21 -32 -35t-43 -22q-22 -7 -47 -7q-29 0 -49 6q-19 6 -34 19q-13 11 -22 30q-10 20 -14 41l29 12q7 3 15 3q15 0 19 -11l6 -15q2 -5 10 -15 q5 -6 17 -11t26 -5q15 0 28 5q10 4 21 13q10 9 14 17q6 14 7 21q2 17 -1 26q-3 10 -12 18q-8 7 -25 10q-22 4 -39 4l5 43q44 0 63 15q20 15 23 42q3 25 -10 38q-12 12 -37 12t-39 -11q-16 -13 -25 -32q-6 -10 -9 -12q-4 -3 -12 -3h-5h-4l-33 6q8 30 20 47q14 20 31 33 q19 14 40 20q23 6 46 6z" />
<glyph unicode="&#xb4;" horiz-adv-x="287" d="M264 724l-132 -128q-8 -8 -15 -11t-18 -3h-53l89 120q10 14 17 17q8 5 25 5h87z" />
<glyph unicode="&#xb5;" horiz-adv-x="562" d="M190 506l-41 -328q-6 -56 17 -85q24 -30 76 -30q35 0 75 19q37 18 70 51l46 373h89l-62 -506h-53q-19 0 -22 18v55q-38 -37 -75 -53q-39 -17 -81 -17q-35 0 -64 13q-25 11 -43 36q2 -22 0 -43q-2 -28 -4 -41l-17 -140h-44q-19 0 -28 10t-7 28l79 640h89z" />
<glyph unicode="&#xb6;" horiz-adv-x="676" d="M680 716l-10 -76h-109l-91 -741h-79l91 741h-138l-91 -741h-79l53 431q-52 0 -91 15q-41 16 -66 42q-27 29 -38 61t-6 76q6 44 25 79q18 33 53 60q34 26 75 39q45 14 96 14h405z" />
<glyph unicode="&#xb7;" horiz-adv-x="252" d="M52 296q2 17 9 30q8 14 19 24q10 9 26 16q13 6 29 6q15 0 29 -6q13 -6 22 -16q8 -10 13 -24t3 -30q-1 -12 -10 -28q-8 -14 -19 -24q-12 -10 -26 -16q-15 -6 -30 -6t-28 6t-22 16q-8 10 -13 24q-4 11 -2 28z" />
<glyph unicode="&#xb8;" horiz-adv-x="276" d="M58 -124q4 0 7 -1q6 -2 9 -4t13 -4t18 -2q22 0 33 8q12 9 13 21q2 10 -3 16q-5 7 -15 12q-7 4 -24 7q-6 1 -17 2.5t-16 2.5l30 71h56l-17 -40q46 -11 62 -27q18 -18 15 -44q-1 -15 -12 -29q-10 -13 -25 -22q-16 -10 -36 -14q-23 -5 -44 -5q-19 0 -39 5t-32 11l11 28 q4 8 13 8z" />
<glyph unicode="&#xb9;" horiz-adv-x="271" d="M48 492h74l27 220l4 22l-59 -44q-5 -4 -13 -4q-13 0 -15 6l-16 28l122 96h54l-39 -324h65l-6 -42h-203z" />
<glyph unicode="&#xba;" horiz-adv-x="388" d="M223 724q36 0 62 -10t45 -31q17 -18 25 -49q7 -28 3 -64q-5 -38 -19 -65q-15 -28 -37 -49q-22 -20 -52 -31q-31 -11 -65 -11q-35 0 -63 11t-45 31t-25 49t-3 65q5 37 19 64q16 31 37 49q24 21 53 31t65 10zM192 467q42 0 65 26q25 28 31 77q6 50 -12 76t-59 26 q-44 0 -68 -26q-24 -25 -30 -76t11 -77t62 -26z" />
<glyph unicode="&#xbb;" horiz-adv-x="392" d="M64 64l-27 15q-13 6 -11 20q1 9 7 17l95 131q6 10 16 18q-5 5 -11 18l-64 131q-4 8 -3 16q2 15 17 21l31 14l100 -195l-1 -11zM362 271l-1 -12l-149 -194l-27 14q-13 6 -11 20q1 9 7 17l95 131q6 10 16 18q-5 5 -11 18l-64 131q-4 9 -3 17q2 14 17 20l31 14z" />
<glyph unicode="&#xbc;" horiz-adv-x="654" d="M573 134h54l-4 -33q0 -6 -4 -9q-6 -4 -11 -4h-41l-11 -88h-54l11 88h-153q-10 0 -14 4q-5 5 -5 10l-2 28l200 234h62zM35 394h73l27 220l5 22l-59 -44q-7 -5 -14 -5q-12 0 -15 7l-16 28l123 95h54l-40 -323h65l-5 -42h-203zM533 254q1 6 3 20q1 7 5 23l-141 -163h118z M129 26q-11 -14 -23 -20t-26 -6h-38l493 686q9 14 23 22q13 8 29 8h38z" />
<glyph unicode="&#xbd;" horiz-adv-x="658" d="M438 52q30 8 47 8h77q4 23 6 27q3 10 13 10h28l-12 -97h-255l2 22q2 15 14 26l124 110q67 60 73 104q3 27 -10 40q-14 14 -36 14q-43 0 -64 -46q-10 -14 -24 -14h-5q-4 -1 -4 0l-34 6q14 53 51 80q36 26 90 26q52 0 80 -28t22 -76t-59 -100q-4 -4 -9.5 -9t-12 -11 t-10.5 -9zM36 394h74l27 220l5 22l-59 -44q-7 -5 -16 -5q-10 0 -13 7l-16 28l123 95h54l-40 -323h65l-5 -42h-204zM109 26q-19 -26 -49 -26h-38l493 686q23 30 51 30h39z" />
<glyph unicode="&#xbe;" horiz-adv-x="677" d="M595 134h54l-4 -33q0 -6 -4 -9q-6 -4 -11 -4h-41l-11 -88h-54l11 88h-153q-10 0 -14 4q-5 5 -5 10l-1 28l199 234h62zM188 720q27 0 45 -7q19 -7 33 -20q13 -13 19 -30t3 -37q-7 -64 -70 -86q32 -9 47 -29t11 -51q-3 -28 -16 -48q-14 -21 -33 -36q-17 -13 -42 -21 q-22 -7 -48 -7q-29 0 -49 6q-21 6 -34 18q-12 10 -22 31q-8 17 -13 41l29 12q8 3 15 3q14 0 18 -11q0 -2 1 -4.5t2.5 -5.5l2.5 -5q2 -5 10 -15q6 -7 17 -12q9 -4 26 -4q15 0 28 5q12 5 21 12q11 9 15 18q4 11 6 21q2 16 -1 25q-3 11 -12 18q-10 8 -24 11q-16 3 -40 3l6 44 q43 0 63 15q19 15 22 41t-9 38q-13 13 -37 13q-25 0 -40 -12t-24 -31q-5 -9 -10 -12q-6 -4 -12 -4h-4l-2 1h-3l-33 6q7 26 21 46t31 33q19 14 40 20q26 7 46 7zM555 254q0 3 0.5 6.5t1.5 8t1 6.5q1 5 5 22l-141 -163h118zM153 27q-13 -16 -23 -21q-12 -6 -26 -6h-38l493 686 q11 15 23 23q13 8 29 8h38z" />
<glyph unicode="&#xbf;" horiz-adv-x="381" d="M359 -106q-22 -18 -37 -28q-8 -5 -44 -22q-20 -9 -50 -16q-27 -6 -57 -6q-37 0 -72 11q-30 10 -54 32q-22 21 -32 49q-11 30 -6 68t19 64q15 27 34 46q17 17 42 32q8 5 22 14t19 12q17 11 34 24q13 11 18 28l19 78h61l-5 -84v-6q-3 -24 -16 -38q-17 -19 -32 -28 q-26 -16 -40 -24q-28 -16 -41 -26q-15 -12 -32 -36q-15 -22 -18 -49q-3 -19 4 -39q6 -19 19 -30q14 -12 32 -18q23 -7 42 -7q32 0 53 7q20 7 39 17q9 5 26 17q10 7 17 7t11 -3q3 -2 6 -8zM205 452q1 13 7 24q4 8 16 20q10 10 21 14t25 4q15 0 24 -4q11 -5 19 -14 q7 -9 10 -20q3 -13 2 -24q-1 -12 -8 -25q-5 -10 -15 -20q-8 -8 -22 -13q-13 -5 -25 -5t-24 5q-11 5 -18 13q-9 10 -11 20q-3 10 -1 25z" />
<glyph unicode="&#xc0;" d="M703 56q12 -3 11 -16l-4 -40h-206l5 40q1 13 15 16l43 12l-38 144h-309l-74 -144l39 -12q13 -3 12 -16l-5 -40h-206l5 40q1 13 15 16l42 12l339 648h98l180 -648zM255 282h255l-72 276q-7 24 -13 67q-19 -46 -30 -68zM377 891q17 0 24 -3q6 -2 16 -14l93 -101h-70 q-8 0 -16 2q-6 2 -13 7l-135 109h101z" />
<glyph unicode="&#xc1;" d="M703 56q12 -3 11 -16l-4 -40h-206l5 40q1 13 15 16l43 12l-38 144h-309l-74 -144l39 -12q13 -3 12 -16l-5 -40h-206l5 40q1 13 15 16l42 12l339 648h98l180 -648zM255 282h255l-72 276q-7 24 -13 67q-19 -46 -30 -68zM627 891l-160 -108q-10 -6 -16 -8q-8 -2 -17 -2h-69 l118 101q2 1 5 4t5 4q1 1 3 2q4 3 6 4q6 2 11 2q2 0 6.5 0.5t7.5 0.5h100z" />
<glyph unicode="&#xc2;" d="M703 56q12 -3 11 -16l-4 -40h-206l5 40q1 13 15 16l43 12l-38 144h-309l-74 -144l39 -12q13 -3 12 -16l-5 -40h-206l5 40q1 13 15 16l42 12l339 648h98l180 -648zM255 282h255l-72 276q-7 24 -13 67q-19 -46 -30 -68zM605 773h-67q-3 0 -13 2q-5 1 -11 5l-59 47 q-1 1 -5 4q-1 -1 -2.5 -1.5t-3.5 -1.5l-1 -1l-71 -47q-6 -4 -12 -5q-10 -2 -13 -2h-68l132 105h88z" />
<glyph unicode="&#xc3;" d="M703 56q12 -3 11 -16l-4 -40h-206l5 40q1 13 15 16l43 12l-38 144h-309l-74 -144l39 -12q13 -3 12 -16l-5 -40h-206l5 40q1 13 15 16l42 12l339 648h98l180 -648zM255 282h255l-72 276q-7 24 -13 67q-19 -46 -30 -68zM510 832q18 0 28 10t13 29h49q-3 -24 -10 -40 t-20 -31q-12 -14 -28 -21q-15 -7 -37 -7q-17 0 -32 6q-7 3 -29 15q-18 10 -26 14q-14 7 -25 7q-16 0 -27 -11q-10 -10 -13 -29h-50q3 24 10 40q6 14 21 31q12 13 29 21q15 7 36 7q15 0 32 -7q14 -5 29 -14q18 -10 26 -14q12 -6 24 -6z" />
<glyph unicode="&#xc4;" d="M703 56q12 -3 11 -16l-4 -40h-206l5 40q1 13 15 16l43 12l-38 144h-309l-74 -144l39 -12q13 -3 12 -16l-5 -40h-206l5 40q1 13 15 16l42 12l339 648h98l180 -648zM255 282h255l-72 276q-7 24 -13 67q-19 -46 -30 -68zM399 833q-2 -13 -7 -21q-8 -12 -14 -17 q-8 -7 -20 -12q-9 -4 -22 -4q-12 0 -20 4q-9 5 -15 12q-7 9 -10 17q-3 10 -2 21q2 12 7 22q6 10 14 17q10 8 19 12q12 5 21 5q11 0 21 -5q11 -5 16 -12q8 -10 10 -17q3 -12 2 -22zM612 833q-2 -13 -7 -21q-8 -12 -14 -17q-10 -8 -19 -12t-22 -4t-21 4q-11 5 -16 12 q-7 9 -10 17t-1 21q2 12 7 22q6 10 14 17q10 8 19 12q12 5 22 5t20 -5q11 -5 16 -12q8 -10 10 -17q3 -12 2 -22z" />
<glyph unicode="&#xc5;" d="M703 56q12 -3 11 -16l-4 -40h-206l5 40q1 13 15 16l43 12l-38 144h-309l-74 -144l39 -12q13 -3 12 -16l-5 -40h-206l5 40q1 13 15 16l42 12l339 648h98l180 -648zM255 282h255l-72 276q-7 24 -13 67q-19 -46 -30 -68zM354 830q3 21 12 35q11 18 24 29q13 12 32 18 q18 6 37 6t36 -6q16 -6 28 -18q10 -10 17 -29q6 -17 3 -36q-3 -21 -11 -35q-7 -12 -25 -27q-16 -13 -32 -18q-21 -7 -38 -7q-16 0 -35 7q-16 6 -28 18q-11 11 -17 27t-3 36zM398 829q-3 -21 9 -35q12 -15 36 -15q23 0 38 15t18 35q3 23 -9 37t-35 14t-39 -14 q-15 -13 -18 -37z" />
<glyph unicode="&#xc6;" horiz-adv-x="962" d="M-9 40q1 13 15 16l42 12l379 582q-8 2 -13 3q-2 0 -4 0.5t-4 0.5l-1 1q-14 3 -12 19l5 42h582l-21 -172h-48q-17 0 -19 17q0 5 3 77h-299l1 -238h265l-10 -76h-255l1 -245h229q14 67 15 71q6 17 23 17h48l-21 -167h-458l6 43q2 16 17 19q2 1 24 4q13 2 25 5v125h-278 l-82 -128l39 -12q13 -3 12 -16l-5 -40h-113h-1h-38h-54zM273 266h233l-1 376q-16 -36 -36 -70z" />
<glyph unicode="&#xc7;" horiz-adv-x="620" d="M428 724q84 0 215 -51l-7 -56l-13 -111h-49q-16 0 -18 17q-1 3 1 45q0 11 0.5 22t1 16.5t0.5 7.5q-216 70 -344 -50q-82 -77 -98 -206q-17 -131 46 -208q58 -74 168 -74q63 0 96 12q53 19 95 52q10 8 17 8q8 0 14 -6l33 -42q-102 -104 -253 -108l-11 -27q46 -11 62 -27 q19 -19 16 -39q-3 -21 -13 -34t-25 -22q-33 -19 -80 -19q-36 0 -71 16l12 28q4 8 12 8q4 0 7 -1q1 0 4 -1.5l5 -2.5q13 -6 33 -6t31 8q12 9 13 20t-3 17q-6 8 -15 12q-11 5 -57 12l25 60q-129 12 -199 100q-80 101 -61 264q20 162 132 264t278 102z" />
<glyph unicode="&#xc8;" horiz-adv-x="572" d="M78 716h514l-21 -172h-48q-18 0 -19 17q0 29 2 77h-268l-29 -238h264l-9 -76h-264l-30 -245h268q14 67 15 71q6 17 24 17h48l-21 -167h-514l6 43q2 16 17 19l58 11l71 571q-13 2 -26.5 5t-20 4.5t-9.5 1.5q-15 3 -13 19zM319 891q17 0 24 -3q6 -2 16 -14l93 -101h-70 q-8 0 -16 2q-6 2 -13 7l-135 109h101z" />
<glyph unicode="&#xc9;" horiz-adv-x="572" d="M78 716h514l-21 -172h-48q-18 0 -19 17q0 29 2 77h-268l-29 -238h264l-9 -76h-264l-30 -245h268q14 67 15 71q6 17 24 17h48l-21 -167h-514l6 43q2 16 17 19l58 11l71 571q-13 2 -26.5 5t-20 4.5t-9.5 1.5q-15 3 -13 19zM569 891l-160 -108q-10 -6 -16 -8q-8 -2 -17 -2 h-69l118 101q2 1 5 4t5 4l9 6q6 2 11 2q2 0 6.5 0.5t7.5 0.5h100z" />
<glyph unicode="&#xca;" horiz-adv-x="573" d="M78 716h514l-21 -172h-48q-18 0 -19 17q0 29 2 77h-268l-29 -238h264l-9 -76h-264l-30 -245h268q14 67 15 71q6 17 24 17h48l-21 -167h-514l6 43q2 16 17 19l58 11l71 571q-13 2 -26.5 5t-20 4.5t-9.5 1.5q-15 3 -13 19zM547 773h-67q-3 0 -13 2q-7 1 -11 4l-59 48 q-1 1 -5 4l-4 -2t-3 -2l-71 -47q-6 -4 -12 -5q-10 -2 -13 -2h-68l132 105h88z" />
<glyph unicode="&#xcb;" horiz-adv-x="573" d="M78 716h514l-21 -172h-48q-18 0 -19 17q0 29 2 77h-268l-29 -238h264l-9 -76h-264l-30 -245h268q14 67 15 71q6 17 24 17h48l-21 -167h-514l6 43q2 16 17 19l58 11l71 571q-13 2 -26.5 5t-20 4.5t-9.5 1.5q-15 3 -13 19zM341 833q-2 -13 -7 -21q-8 -12 -14 -17 q-8 -7 -20 -12q-9 -4 -22 -4q-12 0 -20 4q-9 5 -15 12q-7 9 -10 17q-3 10 -2 21q2 12 7 22q6 10 14 17q10 8 19 12q12 5 21 5q11 0 21 -5q11 -5 16 -12q8 -10 10 -17q3 -12 2 -22zM554 833q-2 -13 -7 -21q-8 -12 -14 -17q-10 -8 -19 -12t-22 -4t-21 4q-11 5 -16 12 q-7 9 -10 17t-1 21q2 12 7 22q6 10 14 17q10 8 19 12q12 5 22 5t20 -5q11 -5 16 -12q8 -10 10 -17q3 -12 2 -22z" />
<glyph unicode="&#xcc;" horiz-adv-x="293" d="M297 655l-58 -11l-71 -571q44 -8 59 -12q12 -3 10 -18l-5 -43h-242l6 43q2 16 17 19l58 11l71 571q-49 9 -59 12q-12 3 -10 18l5 42h242l-5 -42q-2 -16 -18 -19zM141 891q17 0 24 -3q6 -2 16 -14l93 -101h-69q-8 0 -16 2t-14 7l-134 109h100z" />
<glyph unicode="&#xcd;" horiz-adv-x="353" d="M297 655l-58 -11l-71 -571q44 -8 59 -12q12 -3 10 -18l-5 -43h-242l6 43q2 16 17 19l58 11l71 571q-49 9 -59 12q-12 3 -10 18l5 42h242l-5 -42q-2 -16 -18 -19zM392 891l-160 -108q-10 -6 -16 -8q-8 -2 -18 -2h-69l118 101q8 6 11 8l9 6q6 2 10 2q2 0 6.5 0.5t7.5 0.5 h101z" />
<glyph unicode="&#xce;" horiz-adv-x="331" d="M297 655l-58 -11l-71 -571q44 -8 59 -12q12 -3 10 -18l-5 -43h-242l6 43q2 16 17 19l58 11l71 571q-49 9 -59 12q-12 3 -10 18l5 42h242l-5 -42q-2 -16 -18 -19zM370 773h-68q-2 0 -12 2q-5 1 -11 5l-59 47q-3 1 -6 4l-6 -4l-71 -47q-6 -4 -12 -5q-10 -2 -14 -2h-67 l132 105h88z" />
<glyph unicode="&#xcf;" horiz-adv-x="337" d="M297 655l-58 -11l-71 -571q44 -8 59 -12q12 -3 10 -18l-5 -43h-242l6 43q2 16 17 19l58 11l71 571q-49 9 -59 12q-12 3 -10 18l5 42h242l-5 -42q-2 -16 -18 -19zM163 833q-2 -13 -7 -21q-8 -12 -14 -17q-8 -7 -20 -12q-9 -4 -22 -4q-12 0 -20 4q-9 5 -15 12q-7 9 -10 17 q-3 10 -2 21q2 12 7 22q6 10 14 17q10 8 19 12q12 5 21 5q11 0 21 -5q11 -5 16 -12q8 -10 10 -17q3 -12 2 -22zM376 833q-2 -13 -7 -21q-8 -12 -14 -17q-10 -8 -19 -12t-22 -4t-21 4q-11 5 -16 12q-7 9 -10 17t-1 21q2 12 7 22q6 10 14 17q10 8 19 12q12 5 22 5t20 -5 q11 -5 16 -12q8 -10 10 -17q3 -12 2 -22z" />
<glyph unicode="&#xd0;" d="M712 505q18 -65 7 -147q-11 -81 -43 -146q-33 -66 -86 -113q-54 -48 -121 -73q-69 -26 -147 -26h-258h-72q4 34 5 43q2 16 17 19l59 11l32 260h-99l7 57h99l31 254q-47 9 -56 11q-15 3 -13 18l5 43h73h258q81 0 141 -25q64 -26 103 -73q40 -45 58 -113zM587 240 q26 57 33 118q8 67 -4 118q-12 53 -40 88q-28 36 -73 55q-44 19 -102 19h-162l-30 -248h190l-7 -57h-190l-31 -255h161q56 0 107 20q50 20 86 54q39 37 62 88z" />
<glyph unicode="&#xd1;" horiz-adv-x="776" d="M581 160q0 22 3 49l54 434l-32 6l-24 4.5t-10 1.5q-14 3 -12 19l5 42h81h85h73l-5 -42q-2 -16 -18 -19l-58 -11l-79 -644h-50q-20 0 -32 18l-348 539q-2 -32 -4 -47l-54 -437q58 -11 66 -12q14 -3 12 -18l-5 -43h-239l6 43q1 15 17 18l58 12l71 570q-13 3 -26 5.5 t-20.5 4.5t-9.5 2q-15 3 -13 19l5 42h122q13 0 19 -3t13 -13zM528 831q17 0 28 11q10 10 13 28h49q-3 -23 -10 -39t-20 -31q-12 -14 -28 -21q-15 -7 -37 -7q-17 0 -32 6q-7 3 -29 15q-18 10 -26 14q-12 6 -25 6q-17 0 -27 -10t-13 -29h-50q3 24 10 40q6 14 21 31 q10 11 29 20q18 8 36 8q15 0 32 -7q14 -5 29 -14q18 -10 26 -14q14 -7 24 -7z" />
<glyph unicode="&#xd2;" horiz-adv-x="742" d="M724 358q-11 -83 -44 -148q-36 -70 -86 -116q-53 -48 -121 -75q-69 -27 -148 -27t-140 27q-63 28 -103 75q-42 49 -58 116q-17 70 -7 148q11 83 44 148q36 70 86 116q55 50 121 76t147 26q82 0 141 -26q60 -26 102 -76q42 -52 58 -116q18 -73 8 -148zM624 358 q8 70 -3 118q-12 54 -40 89q-29 36 -74 56q-44 19 -102 19q-59 0 -107 -19q-49 -19 -87 -56q-38 -36 -62 -89q-26 -57 -33 -118q-8 -67 4 -118q12 -54 40 -89q28 -36 73 -55q46 -20 103 -20q56 0 107 20q50 20 87 55q38 36 62 89q25 54 32 118zM357 891q15 0 23 -3t17 -14 l93 -101h-70q-8 0 -16 2t-14 7l-134 109h101z" />
<glyph unicode="&#xd3;" horiz-adv-x="742" d="M724 358q-11 -83 -44 -148q-36 -70 -86 -116q-53 -48 -121 -75q-69 -27 -148 -27t-140 27q-63 28 -103 75q-42 49 -58 116q-17 70 -7 148q11 83 44 148q36 70 86 116q55 50 121 76t147 26q82 0 141 -26q60 -26 102 -76q42 -52 58 -116q18 -73 8 -148zM624 358 q8 70 -3 118q-12 54 -40 89q-29 36 -74 56q-44 19 -102 19q-59 0 -107 -19q-49 -19 -87 -56q-38 -36 -62 -89q-26 -57 -33 -118q-8 -67 4 -118q12 -54 40 -89q28 -36 73 -55q46 -20 103 -20q56 0 107 20q50 20 87 55q38 36 62 89q25 54 32 118zM607 891l-160 -108 q-10 -6 -16 -8q-8 -2 -17 -2h-69l118 101q2 1 5 4t5 4q6 4 9 5q9 3 10 3q2 0 7 0.5t8 0.5h100z" />
<glyph unicode="&#xd4;" horiz-adv-x="742" d="M724 358q-11 -83 -44 -148q-36 -70 -86 -116q-53 -48 -121 -75q-69 -27 -148 -27t-140 27q-63 28 -103 75q-42 49 -58 116q-17 70 -7 148q11 83 44 148q36 70 86 116q55 50 121 76t147 26q82 0 141 -26q60 -26 102 -76q42 -52 58 -116q18 -73 8 -148zM624 358 q8 70 -3 118q-12 54 -40 89q-29 36 -74 56q-44 19 -102 19q-59 0 -107 -19q-49 -19 -87 -56q-38 -36 -62 -89q-26 -57 -33 -118q-8 -67 4 -118q12 -54 40 -89q28 -36 73 -55q46 -20 103 -20q56 0 107 20q50 20 87 55q38 36 62 89q25 54 32 118zM585 773h-67q-3 0 -13 2 q-7 1 -11 4l-59 48q-3 1 -6 4l-6 -4l-71 -48q-3 -2 -12 -4q-10 -2 -13 -2h-68l132 105h88z" />
<glyph unicode="&#xd5;" horiz-adv-x="742" d="M724 358q-11 -83 -44 -148q-36 -70 -86 -116q-53 -48 -121 -75q-69 -27 -148 -27t-140 27q-63 28 -103 75q-42 49 -58 116q-17 70 -7 148q11 83 44 148q36 70 86 116q55 50 121 76t147 26q82 0 141 -26q60 -26 102 -76q42 -52 58 -116q18 -73 8 -148zM624 358 q8 70 -3 118q-12 54 -40 89q-29 36 -74 56q-44 19 -102 19q-59 0 -107 -19q-49 -19 -87 -56q-38 -36 -62 -89q-26 -57 -33 -118q-8 -67 4 -118q12 -54 40 -89q28 -36 73 -55q46 -20 103 -20q56 0 107 20q50 20 87 55q38 36 62 89q25 54 32 118zM490 831q17 0 28 11 q10 10 13 28h49q-3 -23 -10 -39t-20 -31q-12 -13 -29 -21q-15 -7 -36 -7q-18 0 -33 6q-7 3 -29 15q-18 10 -26 14q-14 7 -24 7q-17 0 -28 -11q-10 -10 -13 -29h-50q3 21 11 40q7 16 20 31q10 11 29 20q18 8 36 8q16 0 33 -7q14 -5 29 -14q18 -10 26 -14q14 -7 24 -7z" />
<glyph unicode="&#xd6;" horiz-adv-x="742" d="M724 358q-11 -83 -44 -148q-36 -70 -86 -116q-53 -48 -121 -75q-69 -27 -148 -27t-140 27q-63 28 -103 75q-42 49 -58 116q-17 70 -7 148q11 83 44 148q36 70 86 116q55 50 121 76t147 26q82 0 141 -26q60 -26 102 -76q42 -52 58 -116q18 -73 8 -148zM624 358 q8 70 -3 118q-12 54 -40 89q-29 36 -74 56q-44 19 -102 19q-59 0 -107 -19q-49 -19 -87 -56q-38 -36 -62 -89q-26 -57 -33 -118q-8 -67 4 -118q12 -54 40 -89q28 -36 73 -55q46 -20 103 -20q56 0 107 20q50 20 87 55q38 36 62 89q25 54 32 118zM378 833q-2 -13 -7 -21 q-8 -12 -14 -17q-10 -8 -19 -12t-22 -4q-12 0 -20 4q-11 5 -16 12q-7 9 -10 17q-4 10 -2 21q1 10 8 22q6 10 14 17q11 9 18 12q12 5 21 5q11 0 21 -5q12 -6 17 -12q8 -10 10 -17q3 -9 1 -22zM591 833q-2 -13 -7 -21q-8 -12 -14 -17q-10 -8 -19 -12t-21 -4q-13 0 -21 4 q-11 5 -16 12q-7 9 -10 17q-3 10 -2 21q2 12 7 22q6 10 14 17q10 8 19 12q12 5 22 5q11 0 21 -5q11 -5 16 -12q8 -10 10 -17q3 -9 1 -22z" />
<glyph unicode="&#xd7;" horiz-adv-x="464" d="M472 507l-193 -172l155 -177l-53 -48l-156 178l-200 -178l-41 48l199 178l-151 172l53 48l152 -173l193 172z" />
<glyph unicode="&#xd8;" horiz-adv-x="752" d="M730 358q-11 -83 -44 -148q-36 -70 -86 -116q-53 -48 -121 -75q-69 -27 -148 -27q-50 0 -99 13q-47 12 -82 36l-59 -68q-14 -15 -28 -21q-15 -6 -29 -6h-40l112 130q-50 50 -72 120t-11 162q11 83 44 148q36 70 86 116q55 50 121 76t147 26q61 0 106 -14q49 -15 86 -42 l48 56q12 14 20 19q9 6 25 6h50l-100 -117q46 -50 65 -119q20 -69 9 -155zM122 358q-9 -65 4 -120q12 -55 42 -90l385 450q-28 22 -63 32q-38 11 -79 11q-56 0 -107 -20q-49 -19 -87 -56q-39 -37 -62 -88q-26 -57 -33 -119zM630 358q8 65 -2 113q-10 51 -36 87l-382 -446 q56 -36 132 -36q56 0 107 20q50 20 87 55q38 36 62 89q25 54 32 118z" />
<glyph unicode="&#xd9;" horiz-adv-x="728" d="M684 716h72l-5 -42q-2 -16 -18 -19l-58 -11l-44 -363q-15 -124 -102 -207q-88 -82 -219 -82q-130 0 -199 82q-66 81 -51 207l45 363q-13 2 -26.5 5t-20 4.5t-9.5 1.5q-15 3 -13 19l5 42h251l-5 -42q-2 -16 -18 -19q-2 0 -10.5 -1.5t-24.5 -4t-33 -5.5l-44 -362 q-11 -93 32 -148q45 -57 131 -57q88 0 146 57q58 56 68 147l45 363q-17 3 -32 5.5t-23 4t-10 1.5q-15 3 -13 19l5 42h81h97zM340 891q16 0 24 -3q6 -2 16 -14l93 -101h-70q-8 0 -16 2q-6 2 -13 7l-135 109h101z" />
<glyph unicode="&#xda;" horiz-adv-x="728" d="M684 716h72l-5 -42q-2 -16 -18 -19l-58 -11l-44 -363q-15 -124 -102 -207q-88 -82 -219 -82q-130 0 -199 82q-66 81 -51 207l45 363q-13 2 -26.5 5t-20 4.5t-9.5 1.5q-15 3 -13 19l5 42h251l-5 -42q-2 -16 -18 -19q-2 0 -10.5 -1.5t-24.5 -4t-33 -5.5l-44 -362 q-11 -93 32 -148q45 -57 131 -57q88 0 146 57q58 56 68 147l45 363q-17 3 -32 5.5t-23 4t-10 1.5q-15 3 -13 19l5 42h81h97zM590 891l-160 -108q-10 -6 -16 -8q-10 -2 -17 -2h-69l118 101q2 1 5 4t5 4l9 6q6 2 11 2q2 0 6.5 0.5t7.5 0.5h100z" />
<glyph unicode="&#xdb;" horiz-adv-x="728" d="M684 716h72l-5 -42q-2 -16 -18 -19l-58 -11l-44 -363q-15 -124 -102 -207q-88 -82 -219 -82q-130 0 -199 82q-66 81 -51 207l45 363q-13 2 -26.5 5t-20 4.5t-9.5 1.5q-15 3 -13 19l5 42h251l-5 -42q-2 -16 -18 -19q-2 0 -10.5 -1.5t-24.5 -4t-33 -5.5l-44 -362 q-11 -93 32 -148q45 -57 131 -57q88 0 146 57q58 56 68 147l45 363q-17 3 -32 5.5t-23 4t-10 1.5q-15 3 -13 19l5 42h81h97zM568 773h-67q-3 0 -13 2q-7 1 -11 4l-59 48q-1 1 -5 4q-2 -1 -4.5 -2t-2.5 -2l-71 -47q-6 -4 -12 -5q-10 -2 -13 -2h-68l132 105h88z" />
<glyph unicode="&#xdc;" horiz-adv-x="728" d="M684 716h72l-5 -42q-2 -16 -18 -19l-58 -11l-44 -363q-15 -124 -102 -207q-88 -82 -219 -82q-130 0 -199 82q-66 81 -51 207l45 363q-13 2 -26.5 5t-20 4.5t-9.5 1.5q-15 3 -13 19l5 42h251l-5 -42q-2 -16 -18 -19q-2 0 -10.5 -1.5t-24.5 -4t-33 -5.5l-44 -362 q-11 -93 32 -148q45 -57 131 -57q88 0 146 57q58 56 68 147l45 363q-17 3 -32 5.5t-23 4t-10 1.5q-15 3 -13 19l5 42h81h97zM362 833q-2 -13 -7 -21q-8 -12 -14 -17q-8 -7 -20 -12q-9 -4 -22 -4q-12 0 -20 4q-9 5 -15 12q-7 9 -10 17q-4 10 -2 21q2 12 7 22q6 10 14 17 q10 8 19 12q12 5 21 5q11 0 21 -5q11 -5 16 -12q8 -10 10 -17q3 -12 2 -22zM575 833q-2 -13 -7 -21q-8 -12 -14 -17q-10 -8 -19 -12t-22 -4t-21 4q-11 5 -16 12q-6 7 -9 17t-2 21q2 12 7 22q6 10 14 17q10 8 19 12q12 5 22 5t20 -5q11 -5 16 -12q8 -10 10 -17q3 -12 2 -22z " />
<glyph unicode="&#xdd;" horiz-adv-x="651" d="M438 716h241l-6 -42q-1 -15 -15 -18l-54 -12l-262 -359l-26 -212l8 -1q8 -2 20 -4.5t27 -5.5t13 -19l-5 -43h-72h-97h-72l5 43q2 16 18 19l58 11l26 212l-174 359q-11 3 -21 5t-18.5 3.5t-10.5 2.5q-13 3 -11 19l5 42h241l-5 -42q-2 -16 -18 -19q-15 -3 -29 -5.5 t-20.5 -4t-8.5 -1.5l106 -228q12 -29 21 -64q17 36 37 64l162 228q-1 0 -8 1.5t-20.5 4t-27.5 5.5q-15 3 -13 19zM538 891l-160 -108q-10 -6 -16 -8q-8 -2 -17 -2h-69l118 101q2 1 5 4t5 4q8 5 10 6q6 2 10 2q2 0 6.5 0.5t7.5 0.5h100z" />
<glyph unicode="&#xde;" horiz-adv-x="552" d="M130 136l-16 -136h-97l88 716h96l-16 -132h115q69 0 117 -15q46 -16 77 -45q30 -29 41 -70q11 -42 5 -92q-6 -48 -29 -91q-22 -40 -60 -71q-39 -31 -89 -47q-54 -17 -117 -17h-115zM140 213h115q39 0 74 11q31 10 57 31q23 19 39 47q13 23 18 60q9 69 -29 108 q-37 38 -123 38h-115z" />
<glyph unicode="&#xdf;" horiz-adv-x="541" d="M346 727q52 0 88 -15q37 -16 57 -38q21 -24 30 -51q8 -25 5 -53q-3 -29 -17 -51q-15 -23 -31 -38q-21 -19 -38 -29q-3 -2 -38 -25q-15 -10 -30 -25q-13 -14 -14 -28q-3 -20 9 -33q9 -10 30 -24q8 -6 41 -23q19 -10 39 -30q18 -18 28 -42q11 -26 6 -65q-4 -38 -23 -69 q-18 -30 -46 -52q-27 -21 -62 -33q-32 -11 -75 -11q-51 0 -86 17q-37 18 -64 45l25 34q5 7 11 10t14 3q11 0 19 -7q3 -3 21 -16q6 -5 31 -15q17 -7 44 -7q20 0 41 7q19 6 32 18q14 13 22 27q7 14 11 35q3 27 -9 45q-13 20 -31 31q-20 12 -43 23q-24 11 -42 25q-20 15 -31 35 q-12 20 -7 54q3 26 17 46q15 22 32 36t40 29t40 29q21 18 32 32q13 17 16 42q2 18 -2 32q-4 16 -17 30q-12 13 -34 21q-19 8 -52 8t-63 -11q-31 -11 -52 -31t-37 -53q-14 -30 -19 -73l-61 -493h-89l60 496q6 51 29 94q25 46 58 74q35 29 83 46t102 17z" />
<glyph unicode="&#xe0;" horiz-adv-x="511" d="M342 1q-30 0 -30 31l9 101q-56 -100 -132 -129q-24 -10 -53 -10q-67 0 -99.5 49.5t-32.5 128.5q0 137 93 239q94 103 227 103q72 0 124 -23l-51 -417q1 0 27 -5t30 -6q15 -3 15 -19v-43h-81h-46zM334 268l21 172q-9 8 -21 8h-22q-89 0 -154 -78q-65 -79 -65 -182 q0 -120 77 -120q48 0 92 57q45 57 72 143zM234 724q18 0 24 -5q8 -6 13 -17l60 -120h-51q-11 0 -17 3q-5 3 -12 11l-101 128h84z" />
<glyph unicode="&#xe1;" horiz-adv-x="511" d="M342 1q-30 0 -30 31l9 101q-56 -100 -132 -129q-24 -10 -53 -10q-67 0 -99.5 49.5t-32.5 128.5q0 137 93 239q94 103 227 103q72 0 124 -23l-51 -417q1 0 27 -5t30 -6q15 -3 15 -19v-43h-81h-46zM334 268l21 172q-9 8 -21 8h-22q-89 0 -154 -78q-65 -79 -65 -182 q0 -120 77 -120q48 0 92 57q45 57 72 143zM429 724l-133 -128q-8 -8 -15 -11q-8 -3 -17 -3h-53l89 120q10 14 17 17q7 5 25 5h87z" />
<glyph unicode="&#xe2;" horiz-adv-x="512" d="M342 1q-30 0 -30 31l9 101q-57 -100 -131 -129q-24 -10 -53 -10q-67 0 -100 49.5t-33 128.5q0 137 93 239q94 103 228 103q72 0 124 -23l-52 -417q1 0 27 -5t30 -6q15 -3 15 -19v-43h-81h-46zM334 268l22 172q-9 8 -22 8h-21q-90 0 -155 -78q-65 -79 -65 -182 q0 -120 77 -120q49 0 93 57q43 55 71 143zM420 584h-59q-10 0 -20 8l-56 62l-7 9l-9 -9l-73 -62q-1 -1 -9 -5q-6 -3 -11 -3h-62l128 132h83z" />
<glyph unicode="&#xe3;" horiz-adv-x="514" d="M343 1q-30 0 -30 31l9 101q-56 -100 -132 -129q-24 -10 -53 -10q-67 0 -99.5 49.5t-32.5 128.5q0 137 93 239q94 103 227 103q72 0 124 -23l-51 -417q1 0 27 -5t30 -6q15 -3 15 -19v-43h-81h-46zM335 268l21 172q-9 8 -21 8h-22q-90 0 -155 -78q-64 -78 -64 -182 q0 -120 77 -120q48 0 92 57q45 57 72 143zM334 662q18 0 29 11t14 32h54q-3 -23 -12 -43q-10 -22 -22 -34q-13 -14 -30 -21q-18 -8 -38 -8q-18 0 -32 7t-26 16q-4 3 -12.5 8.5t-11.5 7.5q-10 7 -23 7q-36 0 -42 -44h-55q3 28 11 44q9 20 23 34q13 15 31 22q17 7 37 7 q18 0 32 -7q21 -11 27 -15q5 -3 13 -8.5t10 -7.5q11 -8 23 -8z" />
<glyph unicode="&#xe4;" horiz-adv-x="513" d="M342 1q-30 0 -30 31l9 101q-57 -100 -131 -129q-24 -10 -53 -10q-67 0 -100 49.5t-33 128.5q0 137 93 239q94 103 228 103q72 0 124 -23l-52 -417q1 0 27 -5t30 -6q15 -3 15 -19v-43h-81h-46zM334 268l22 172q-9 8 -22 8h-21q-90 0 -155 -78q-65 -79 -65 -182 q0 -120 77 -120q49 0 93 57q43 55 71 143zM242 644q-1 -11 -7 -21q-5 -9 -15 -17q-8 -7 -20 -12t-22 -5t-20 5t-17 12t-10 17q-3 11 -2 21t8 22q8 14 14 19q10 8 19 12q12 5 22 5q11 0 21 -5t17 -12q6 -6 10 -19q3 -12 2 -22zM421 644q-1 -11 -7 -21t-14 -17t-20 -12t-22 -5 q-11 0 -21 5q-11 5 -16 12q-8 10 -10 17q-3 11 -2 21q2 12 7 22q8 14 14 19q8 7 20 12t22 5q11 0 21 -5t17 -12q6 -6 10 -19q3 -9 1 -22z" />
<glyph unicode="&#xe5;" horiz-adv-x="510" d="M341 1q-30 0 -30 31l9 101q-57 -100 -131 -129q-24 -10 -53 -10q-67 0 -99.5 49.5t-32.5 128.5q0 138 92 239q94 103 228 103q72 0 124 -23l-52 -417q1 0 27 -5t30 -6q15 -3 15 -19v-43h-81h-46zM333 268l22 172q-9 8 -22 8h-21q-90 0 -155 -78q-65 -79 -65 -182 q0 -120 77 -120q49 0 93 57q43 55 71 143zM175 658q3 23 12 37q12 19 26 30q17 14 34 19q23 7 39 7t37 -7q19 -8 30 -19q13 -13 19 -30q6 -16 3 -37q-3 -23 -13 -38q-12 -18 -25 -29q-17 -13 -35 -19q-20 -6 -39 -6q-21 0 -37 6q-17 6 -30 19q-12 12 -18 29t-3 38zM225 657 q-3 -23 9 -36q12 -14 35 -14q22 0 38 14q15 13 18 36t-9 37t-35 14q-22 0 -38 -14q-15 -13 -18 -37z" />
<glyph unicode="&#xe6;" horiz-adv-x="717" d="M548 513q30 0 55 -9t44 -26q20 -18 29 -38q11 -24 11 -48q0 -28 -14 -56q-13 -27 -48 -48q-36 -22 -92 -35q-61 -14 -148 -14v-10v-10q0 -78 30 -117t84 -39q24 0 44 5q17 4 33 12q18 9 26 16q18 13 21 16q12 10 17 13q8 5 16 5q10 0 17 -9l22 -27q-23 -23 -50 -45 q-25 -20 -50 -32q-26 -12 -53 -18t-60 -6q-52 0 -92 29q-39 28 -59 85q-18 -34 -38 -53q-26 -24 -48 -36q-28 -15 -51 -20q-27 -6 -51 -6q-67 0 -103 30t-36 90q0 37 16 68q17 32 52 57t95 40q62 16 144 16q2 17 3 26q2 14 2 17t0.5 6.5t0.5 4.5v7q0 90 -77 90q-29 0 -51 -8 q-20 -7 -37 -18q-20 -14 -28 -19q-13 -8 -23 -8q-8 0 -15 5t-9 11l-12 27q46 43 88 61q46 20 96 20q55 0 85 -24t41 -67q30 42 74 66q42 23 99 23zM305 238q-60 0 -102 -9q-41 -9 -67 -24q-25 -15 -37 -36q-11 -22 -11 -45q0 -36 19 -54t52 -18q22 0 49 10q22 9 42 27 q18 18 32 46q13 27 18 65zM537 450q-30 0 -55 -11t-43 -32q-20 -23 -31 -50q-12 -28 -18 -65q60 0 107 10q43 9 67 22q25 13 35 29t10 34q0 29 -19 46t-53 17z" />
<glyph unicode="&#xe7;" horiz-adv-x="441" d="M376 104l21 -33q-65 -70 -172 -77l-12 -29q46 -11 62 -27q18 -18 15 -39q-3 -22 -12 -34q-10 -13 -25 -22q-33 -19 -81 -19q-36 0 -71 16l12 28q4 8 13 8q4 0 7 -1q1 -1 4 -2t5 -2q14 -6 32 -6q21 0 32 8q12 9 13 20t-3 17q-5 7 -15 12q-12 5 -58 12l26 61 q-76 10 -119 67q-56 71 -41 192q15 116 85 186q74 74 186 74q59 0 145 -37l-16 -131h-40q-13 0 -15 14q-2 6 0 38q0 9 0.5 17t1.5 12v4q-23 8 -35 9q-25 4 -56 4q-26 0 -57 -13t-52 -37q-45 -50 -55 -140q-11 -92 22 -142t102 -50q62 0 116 42q11 8 20 8q11 0 15 -8z" />
<glyph unicode="&#xe8;" horiz-adv-x="429" d="M401 94q-47 -49 -94.5 -75t-117.5 -26q-133 0 -174 120q-13 36 -13 85q0 123 71 217q74 98 192 98q51 0 88 -20t52 -56q8 -19 8 -39q0 -73 -63 -111q-37 -23 -98 -39q-57 -15 -162 -26q0 -2 -0.5 -5.5t-0.5 -5.5v-11q0 -137 118 -137q59 0 102 33q30 23 38 28t16 5 q9 0 16 -8zM334 394q0 26 -21.5 40.5t-52.5 14.5q-93 0 -140 -102q-14 -28 -22 -66q69 8 123 22q45 12 72 26q41 24 41 65zM222 725q16 0 24 -6q8 -7 13 -16l59 -121h-51q-10 0 -16 3q-7 4 -13 11l-101 129h85z" />
<glyph unicode="&#xe9;" horiz-adv-x="433" d="M401 94q-47 -49 -94.5 -75t-117.5 -26q-133 0 -174 120q-13 36 -13 85q0 123 71 217q74 98 192 98q51 0 88 -20t52 -56q8 -19 8 -39q0 -73 -63 -111q-37 -23 -98 -39q-57 -15 -162 -26q0 -2 -0.5 -5.5t-0.5 -5.5v-11q0 -137 118 -137q59 0 102 33q30 23 38 28t16 5 q9 0 16 -8zM334 394q0 26 -21.5 40.5t-52.5 14.5q-93 0 -140 -102q-14 -28 -22 -66q69 8 123 22q45 12 72 26q41 24 41 65zM416 725l-132 -129q-8 -8 -15 -11t-18 -3h-53l89 121q9 12 17 16q9 6 25 6h87z" />
<glyph unicode="&#xea;" horiz-adv-x="431" d="M402 94q-47 -49 -95 -75t-118 -26q-132 0 -173 120q-13 36 -13 85q0 123 71 217q74 98 192 98q51 0 87.5 -20t51.5 -56q9 -21 9 -39q0 -73 -63 -111q-36 -23 -99 -39q-57 -15 -162 -26v-11v-11q0 -137 117 -137q59 0 102 33q30 23 38 28t16 5q10 0 17 -8zM334 394 q0 26 -21 40.5t-52 14.5q-93 0 -140 -102q-16 -32 -23 -66q71 8 124 22q43 11 71 26q41 24 41 65zM408 585h-59q-12 0 -20 7l-56 63l-7 8l-9 -8l-73 -63q-1 -1 -9 -5q-4 -2 -11 -2h-62l128 132h83z" />
<glyph unicode="&#xeb;" horiz-adv-x="437" d="M403 94q-47 -49 -95 -75t-118 -26q-132 0 -173 120q-13 36 -13 85q0 123 71 217q74 98 192 98q51 0 87.5 -20t51.5 -56q9 -21 9 -39q0 -73 -63 -111q-36 -23 -99 -39q-57 -15 -162 -26v-11v-11q0 -137 117 -137q59 0 102 33q30 23 38 28t16 5q10 0 17 -8zM335 394 q0 26 -21 40.5t-52 14.5q-93 0 -140 -102q-16 -32 -23 -66q71 8 124 22q43 11 71 26q41 24 41 65zM230 645q-2 -12 -7 -22q-6 -10 -14 -17t-20 -12t-22 -5q-11 0 -21 5q-8 4 -16 12q-7 7 -10 17q-3 12 -2 22q2 12 7 22q6 11 15 18q10 8 19 12q12 5 21 5q12 0 22 -5 q8 -4 16 -12t11 -18q3 -9 1 -22zM410 645q-2 -12 -7 -22q-5 -9 -15 -17t-19 -12q-12 -5 -22 -5q-12 0 -22 5q-11 5 -16 12q-8 10 -10 17q-3 12 -2 22t8 22t14 18q10 8 19 12q12 5 22 5q12 0 22 -5q8 -4 16 -12q7 -7 10 -18q3 -12 2 -22z" />
<glyph unicode="&#xec;" horiz-adv-x="255" d="M203 62q15 -3 13 -19l-5 -43h-162l9 73l45 361q-47 9 -56 11q-15 3 -13 18l5 43h162l-54 -433q47 -9 56 -11zM182 581q-18 0 -29 14l-101 129h84q27 0 37 -22l60 -121h-51z" />
<glyph unicode="&#xed;" horiz-adv-x="285" d="M189 62q15 -3 13 -19l-5 -43h-161l9 73l44 361q-46 9 -55 11q-15 3 -13 18l5 43h161l-53 -433q46 -9 55 -11zM186 595q-14 -13 -33 -13h-53l89 120q16 22 42 22h87z" />
<glyph unicode="&#xee;" horiz-adv-x="284" d="M201 62q15 -3 13 -19l-5 -43h-161l9 73l44 361q-47 9 -56 11q-15 3 -13 18l6 43h161l-53 -433q46 -9 55 -11zM96 591q-8 -6 -21 -6h-61l127 131h83l95 -131h-59q-12 0 -19 6q-11 12 -32.5 36t-31.5 36z" />
<glyph unicode="&#xef;" horiz-adv-x="311" d="M220 62q15 -3 13 -19l-6 -43h-161l9 73l45 361q-47 9 -56 11q-15 3 -13 18l5 43h161l-53 -433q47 -9 56 -11zM337 666q3 -12 2 -22q-1 -11 -7 -21q-6 -11 -15 -18q-10 -8 -19 -12t-22 -4q-14 0 -22 4q-11 5 -16 12q-8 9 -10 18q-3 11 -2 21t8 22q8 14 14 19q10 8 19 12 q12 5 22 5q12 0 22 -5q8 -4 16 -12q6 -6 10 -19zM96 589q-13 0 -21 4t-16 12q-7 7 -10 18t-2 21q2 12 7 22q7 12 15 19q10 8 19 12q12 5 21 5q12 0 22 -5q8 -4 16 -12t11 -19q3 -9 1 -22q-1 -11 -7 -21q-7 -12 -14 -18q-8 -7 -20 -12q-9 -4 -22 -4z" />
<glyph unicode="&#xf0;" horiz-adv-x="513" d="M209 532q-1 1 -2 3.5t-1 3.5v7q1 10 14 18l55 36q-9 5 -45 18q-16 6 -52 16q-8 2 -14 9t-4 19q2 8 4 14l14 31q44 -7 90 -23q44 -15 81 -39l91 61l14 -28q3 -6 3 -12q-2 -11 -14 -19l-52 -33q26 -23 48 -56q21 -32 33 -70q13 -42 17 -85q4 -46 -3 -101q-9 -72 -31 -128 q-23 -59 -58 -98q-35 -40 -84 -61q-48 -21 -108 -21q-51 0 -90 16q-41 17 -68 47q-28 32 -40 75q-13 49 -6 101q6 47 27 89q21 43 53 73q34 32 77 50q46 19 95 19q48 0 92 -22q42 -21 69 -65q-2 68 -25 115q-25 49 -67 80l-100 -68zM215 62q35 0 66 14q29 13 54 41 q24 27 40 68q16 40 25 97q-7 26 -16 42q-10 21 -27 36q-18 16 -41 25q-24 9 -54 9q-38 0 -68 -12q-27 -11 -51 -35q-22 -22 -35 -51q-14 -30 -18 -64q-4 -40 3 -72q8 -34 25 -54q18 -21 42 -32q26 -12 55 -12z" />
<glyph unicode="&#xf1;" horiz-adv-x="573" d="M521 61q15 -3 13 -18l-5 -43h-162l40 322q15 121 -92 121q-74 0 -145 -70l-46 -373h-89l53 433q-13 3 -26 5.5t-20.5 4.5t-9.5 2q-14 3 -12 19l5 42h125q19 0 22 -18v-55q85 82 178 82q81 0 119 -52t27 -141l-31 -249q14 -3 26.5 -5.5t20 -4.5t9.5 -2zM381 663 q19 0 29 10q11 11 14 33h54q-3 -25 -12 -44q-10 -22 -22 -34q-14 -14 -30 -21q-18 -8 -38 -8q-18 0 -32 7t-26 16q-4 3 -12.5 8.5t-11.5 7.5q-10 7 -22 7q-37 0 -43 -44h-55q3 28 11 44q9 20 23 34q13 15 31 22q17 7 37 7q18 0 32 -7q21 -11 27 -15q5 -3 13 -8.5t10 -7.5 q10 -7 23 -7z" />
<glyph unicode="&#xf2;" horiz-adv-x="510" d="M279 514q56 0 98 -18q44 -19 70 -52q28 -35 38 -83t3 -107q-8 -60 -30 -108t-58 -82q-37 -36 -82 -53q-46 -18 -103 -18q-56 0 -98 18q-41 18 -69 53q-29 37 -39 82q-11 51 -4 108q7 56 31 107q23 50 58 83t83 52q47 18 102 18zM224 63q75 0 118 50q44 51 54 140 q11 93 -19 141q-31 51 -106 51q-39 0 -68 -13q-27 -12 -51 -38q-21 -22 -35 -60t-20 -81q-5 -39 0 -81q5 -37 20 -59q16 -24 43 -37q26 -13 64 -13zM256 725q16 0 24 -6q8 -7 13 -16l60 -121h-51q-11 0 -17 3q-5 3 -12 11l-101 129h84z" />
<glyph unicode="&#xf3;" horiz-adv-x="511" d="M279 514q56 0 98 -18q44 -19 70 -52q28 -35 38 -83t3 -107q-8 -60 -30 -108t-58 -82q-37 -36 -82 -53q-46 -18 -103 -18q-56 0 -98 18q-41 18 -69 53q-29 37 -39 82q-11 51 -4 108q7 56 31 107q23 50 58 83t83 52q47 18 102 18zM224 63q75 0 118 50q44 51 54 140 q11 93 -19 141q-31 51 -106 51q-39 0 -68 -13q-27 -12 -51 -38q-21 -22 -35 -60t-20 -81q-5 -39 0 -81q5 -37 20 -59q16 -24 43 -37q26 -13 64 -13zM451 725l-132 -129q-8 -8 -15 -11q-8 -3 -18 -3h-53l89 121q9 12 17 16q9 6 25 6h87z" />
<glyph unicode="&#xf4;" horiz-adv-x="510" d="M279 514q56 0 98 -18q44 -19 70 -52q28 -35 38 -83t3 -107q-8 -60 -30 -108t-58 -82q-37 -36 -82 -53q-46 -18 -103 -18q-56 0 -98 18q-41 18 -69 53q-29 37 -39 82q-11 51 -4 108q7 56 31 107q23 50 58 83t83 52q47 18 102 18zM224 63q75 0 118 50q44 51 54 140 q11 93 -19 141q-31 51 -106 51q-39 0 -68 -13q-27 -12 -51 -38q-21 -22 -35 -60t-20 -81q-5 -39 0 -81q5 -37 20 -59q16 -24 43 -37q26 -13 64 -13zM442 585h-60q-11 0 -19 7l-56 63l-8 8l-9 -8l-72 -63q-1 -1 -9 -5q-4 -2 -12 -2h-61l127 132h83z" />
<glyph unicode="&#xf5;" horiz-adv-x="513" d="M280 514q56 0 98 -18q44 -19 70 -52t37 -83q11 -51 4 -107q-7 -60 -30 -108q-22 -48 -58 -82q-37 -35 -83 -53t-102 -18t-98 18q-43 18 -70 53q-28 36 -38 82q-11 51 -4 108q7 59 30 107t59 83q35 34 82 52q46 18 103 18zM224 63q76 0 119 50q44 51 54 140q11 91 -20 141 q-31 51 -106 51q-38 0 -67 -13q-28 -13 -52 -38q-21 -22 -35 -60q-13 -34 -19 -81q-6 -43 -1 -81q4 -35 21 -59t42 -37q26 -13 64 -13zM354 663q19 0 29 10q11 11 14 33h54q-3 -28 -11 -44q-10 -22 -22 -34q-13 -13 -31 -21t-37 -8q-18 0 -32 7q-17 8 -27 16q-5 3 -13 8.5 t-10 7.5q-10 7 -23 7q-36 0 -42 -44h-56q3 25 12 44q9 20 23 34q13 15 31 22q17 7 37 7q18 0 32 -7q18 -9 26 -15q4 -3 12.5 -8.5t11.5 -7.5q10 -7 22 -7z" />
<glyph unicode="&#xf6;" horiz-adv-x="511" d="M279 514q56 0 98 -18q44 -19 70 -52q28 -35 38 -83t3 -107q-8 -60 -30 -108t-58 -82q-37 -36 -82 -53q-46 -18 -103 -18q-56 0 -98 18q-41 18 -69 53q-29 37 -39 82q-11 51 -4 108q7 56 31 107q23 50 58 83t83 52q47 18 102 18zM224 63q75 0 118 50q44 51 54 140 q11 93 -19 141q-31 51 -106 51q-39 0 -68 -13q-27 -12 -51 -38q-21 -22 -35 -60t-20 -81q-5 -39 0 -81q5 -37 20 -59q16 -24 43 -37q26 -13 64 -13zM262 645q-2 -12 -7 -22q-6 -10 -14 -17t-20 -12t-22 -5q-11 0 -21 5q-8 4 -16 12q-7 7 -10 17q-3 12 -2 22q2 12 7 22 q6 11 15 18q10 8 19 12q12 5 21 5q12 0 22 -5q8 -4 16 -12t11 -18q3 -9 1 -22zM442 644q-1 -11 -7 -21q-5 -9 -15 -17t-19 -12q-12 -5 -22 -5q-12 0 -22 5q-11 5 -16 12q-8 10 -10 17q-3 11 -2 21t8 22q8 14 14 19q10 8 19 12q12 5 22 5q12 0 22 -5q8 -4 16 -12q6 -6 10 -19 q3 -12 2 -22z" />
<glyph unicode="&#xf7;" horiz-adv-x="487" d="M7 370h479l-8 -68h-480zM201 513q1 12 8 25q4 8 16 20q8 8 21 13t25 5t24 -5q11 -5 18 -13q9 -10 11 -20q3 -13 2 -25t-8 -25q-4 -8 -16 -20q-8 -8 -21 -13t-25 -5t-24 5q-11 5 -18 13q-9 10 -11 20q-3 13 -2 25zM158 157q2 14 7 25q4 8 16 20q8 8 21 13t25 5t24 -5 q11 -5 18 -13q9 -10 11 -20q3 -13 2 -25t-8 -25q-4 -8 -16 -20q-8 -8 -21 -13t-25 -5t-24 5q-11 5 -18 13q-9 10 -11 20q-3 10 -1 25z" />
<glyph unicode="&#xf8;" horiz-adv-x="546" d="M467 442q26 -34 37 -82q10 -48 3 -106q-7 -60 -30 -108q-22 -48 -58 -82q-37 -36 -82 -53q-47 -18 -103 -18q-38 0 -69 9q-36 10 -57 24l-32 -37q-14 -15 -28 -21q-15 -6 -30 -6h-34l85 98q-29 35 -41 83q-12 47 -4 111q7 56 31 107q23 50 58 83t83 52q46 18 102 18 q39 0 72 -9q34 -9 59 -27l39 46q11 12 21 19q7 5 25 5h45zM111 253q-11 -81 13 -128l255 295q-32 28 -89 28q-38 0 -69 -14q-32 -15 -53 -38q-21 -24 -37 -62q-14 -32 -20 -81zM243 60q38 0 67 13q32 15 54 39q23 26 37 60q14 32 20 81q9 75 -11 124l-253 -293 q31 -24 86 -24z" />
<glyph unicode="&#xf9;" horiz-adv-x="570" d="M230 63q76 0 146 70l37 301q-3 0 -9.5 1.5t-20 4.5t-26.5 5q-15 3 -13 19l5 42h72h89l-53 -433q14 -3 27 -5.5t20 -4t9 -1.5q15 -3 13 -19l-5 -43h-126q-18 0 -21 18l-1 55q-83 -81 -178 -81q-81 0 -120 52q-37 49 -26 140l31 250q-13 2 -26.5 5t-20 4.5t-9.5 1.5 q-14 3 -12 19l5 42h161l-40 -322q-8 -57 16 -90q22 -31 76 -31zM281 724q18 0 24 -5q7 -6 13 -17l59 -120h-51q-10 0 -16 3q-7 4 -13 11l-101 128h85z" />
<glyph unicode="&#xfa;" horiz-adv-x="570" d="M230 63q76 0 146 70l37 301q-3 0 -9.5 1.5t-20 4.5t-26.5 5q-15 3 -13 19l5 42h72h89l-53 -433q14 -3 27 -5.5t20 -4t9 -1.5q15 -3 13 -19l-5 -43h-126q-18 0 -21 18l-1 55q-83 -81 -178 -81q-81 0 -120 52q-37 49 -26 140l31 250q-13 2 -26.5 5t-20 4.5t-9.5 1.5 q-14 3 -12 19l5 42h161l-40 -322q-8 -57 16 -90q22 -31 76 -31zM476 724l-133 -128q-8 -8 -15 -11t-17 -3h-53l89 120q10 14 17 17q7 5 25 5h87z" />
<glyph unicode="&#xfb;" horiz-adv-x="569" d="M230 63q76 0 146 70l37 301q-3 0 -9.5 1.5t-20 4.5t-26.5 5q-15 3 -13 19l5 42h72h89l-53 -433q14 -3 27 -5.5t20 -4t9 -1.5q15 -3 13 -19l-5 -43h-126q-18 0 -21 18l-1 55q-83 -81 -178 -81q-81 0 -120 52q-37 49 -26 140l31 250q-13 2 -26.5 5t-20 4.5t-9.5 1.5 q-14 3 -12 19l5 42h161l-40 -322q-8 -57 16 -90q22 -31 76 -31zM466 584h-59q-10 0 -20 8l-56 62l-7 9l-9 -9l-73 -62q-1 -1 -9 -5q-6 -3 -11 -3h-62l128 132h83z" />
<glyph unicode="&#xfc;" horiz-adv-x="570" d="M230 63q76 0 146 70l37 301q-3 0 -9.5 1.5t-20 4.5t-26.5 5q-15 3 -13 19l5 42h72h89l-53 -433q14 -3 27 -5.5t20 -4t9 -1.5q15 -3 13 -19l-5 -43h-126q-18 0 -21 18l-1 55q-83 -81 -178 -81q-81 0 -120 52q-37 49 -26 140l31 250q-13 2 -26.5 5t-20 4.5t-9.5 1.5 q-14 3 -12 19l5 42h161l-40 -322q-8 -57 16 -90q22 -31 76 -31zM287 644q-1 -11 -7 -21q-5 -9 -15 -17q-8 -7 -20 -12t-22 -5t-20 5t-17 12t-10 17q-3 11 -2 21t8 22q8 14 14 19q10 8 19 12q12 5 22 5q11 0 21 -5t17 -12q6 -6 10 -19q3 -12 2 -22zM466 644q-1 -11 -7 -21 t-14 -17t-20 -12t-22 -5q-11 0 -21 5q-11 5 -16 12q-8 10 -10 17q-3 11 -2 21q2 12 7 22q8 14 14 19q8 7 20 12t22 5q11 0 21 -5t17 -12q6 -6 10 -19q3 -9 1 -22z" />
<glyph unicode="&#xfd;" horiz-adv-x="555" d="M536 506h36l-5 -42q-2 -16 -17 -19q-1 0 -4.5 -1t-10 -2t-12.5 -2t-12.5 -2.5t-10 -2.5t-4.5 -1l-323 -584q-12 -22 -35 -22h-66l117 202l-128 406q-40 8 -44 9q-15 3 -13 19l5 42h227l-5 -42q-2 -16 -17 -19q-40 -8 -56 -11l80 -265q4 -13 8 -45q12 30 20 46l142 264 q-26 5 -53 11q-14 3 -12 19l5 42h188zM471 724l-132 -128q-8 -8 -15 -11q-8 -3 -18 -3h-53l89 120q10 14 17 17q7 5 25 5h87z" />
<glyph unicode="&#xfe;" horiz-adv-x="516" d="M-6 -172l112 908h89l-37 -303q34 35 80 59q43 22 96 22q45 0 77 -16q33 -17 54 -49q22 -34 29 -81q8 -48 0 -112q-8 -58 -28 -104t-54 -83q-33 -36 -75 -56q-41 -20 -94 -20q-49 0 -79 17q-31 18 -52 49l-28 -231h-90zM296 444q-44 0 -79 -20q-34 -19 -67 -57l-30 -245 q21 -32 48 -46q28 -14 63 -14q71 0 115 51q44 52 56 144q6 47 1 85q-4 35 -18 58q-13 22 -36 33q-24 11 -53 11z" />
<glyph unicode="&#xff;" horiz-adv-x="555" d="M536 506h36l-5 -42q-2 -16 -17 -19q-1 0 -4.5 -1t-10 -2t-12.5 -2t-12.5 -2.5t-10 -2.5t-4.5 -1l-323 -584q-12 -22 -35 -22h-66l117 202l-128 406q-40 8 -44 9q-15 3 -13 19l5 42h227l-5 -42q-2 -16 -17 -19q-40 -8 -56 -11l80 -265q4 -13 8 -45q12 30 20 46l142 264 q-26 5 -53 11q-14 3 -12 19l5 42h188zM282 644q-1 -11 -7 -21t-14 -17t-20 -12t-22 -5q-11 0 -21 5q-8 4 -16 12q-7 7 -10 17q-3 11 -2 21q2 12 7 22q7 12 15 19q10 8 19 12q12 5 21 5q12 0 22 -5q8 -4 16 -12t11 -19q3 -9 1 -22zM462 644q-1 -11 -7 -21q-5 -9 -15 -17 t-19 -12q-12 -5 -22 -5q-12 0 -22 5q-11 5 -16 12q-8 10 -10 17q-3 11 -2 21t8 22q8 14 14 19q10 8 19 12q12 5 22 5q12 0 22 -5q8 -4 16 -12q6 -6 10 -19q3 -12 2 -22z" />
<glyph unicode="&#x152;" horiz-adv-x="1042" d="M975 638h-268l-29 -238h264l-9 -76h-264l-30 -245h268q14 67 15 71q6 17 23 17h49l-21 -167h-430l15 120q-51 -62 -117 -94q-67 -33 -144 -33q-75 0 -131 27q-55 27 -91 75t-51 115q-15 69 -5 148q10 80 42 148q32 69 79 116q99 102 242 102q80 0 140 -33q59 -34 94 -95 l15 120h430l-10 -78l-11 -94h-49q-17 0 -18 17q0 29 2 77zM545 239q22 52 30 119q8 68 -1 119q-9 50 -35 89q-26 38 -65 57q-42 20 -92 20t-96 -20q-44 -19 -79 -57q-37 -40 -58 -89q-24 -55 -31 -119q-8 -70 2 -119q11 -55 35 -89q26 -37 66 -56q42 -20 92 -20t96 20 q43 19 79 56q34 36 57 89z" />
<glyph unicode="&#x153;" horiz-adv-x="764" d="M598 513q36 0 59 -8q26 -9 44 -24q20 -18 29 -38q9 -22 9 -49q0 -23 -5 -39q-6 -19 -20 -36q-11 -14 -37 -31q-21 -14 -58 -27q-40 -14 -83 -22q-60 -11 -110 -16v-5q0 -77 30 -116t85 -39q23 0 43 5q17 4 33 12q14 7 26 16q18 13 21 16q8 6 17 12q8 5 16 5q10 0 17 -8 l22 -27q-28 -28 -49 -45q-25 -20 -50 -32t-54 -18t-60 -6q-52 0 -92 29q-39 29 -59 86q-34 -54 -86 -85q-51 -30 -116 -30q-41 0 -71 15q-33 17 -51 40q-19 23 -30 58q-10 31 -10 69q0 82 21 145q21 62 57 106q35 42 84 65q47 22 101 22q55 0 90 -25q34 -24 53 -71 q32 46 78 71t106 25zM191 60q40 0 72 20q31 19 52 54q22 36 32 83q11 50 11 104q0 56 -23 91q-22 34 -72 34q-39 0 -70 -19q-30 -18 -53 -54q-22 -33 -34 -84q-12 -49 -12 -109q0 -22 5 -45q4 -21 17 -38q12 -17 30 -27q17 -10 45 -10zM584 450q-32 0 -55 -11 q-26 -12 -45 -34q-21 -25 -34 -54q-14 -33 -20 -72q67 8 118 22q48 13 72 27q27 16 35 31q10 18 10 32q0 11 -5 23q-4 9 -14 19q-13 9 -25 13q-13 4 -37 4z" />
<glyph unicode="&#x178;" horiz-adv-x="651" d="M438 716h241l-6 -42q-1 -15 -15 -18l-54 -12l-262 -359l-26 -212l8 -1q8 -2 20 -4.5t27 -5.5t13 -19l-5 -43h-72h-97h-72l5 43q2 16 18 19l58 11l26 212l-174 359q-11 3 -21 5t-18.5 3.5t-10.5 2.5q-13 3 -11 19l5 42h241l-5 -42q-2 -16 -18 -19q-15 -3 -29 -5.5 t-20.5 -4t-8.5 -1.5l106 -228q12 -29 21 -64q17 36 37 64l162 228q-1 0 -8 1.5t-20.5 4t-27.5 5.5q-15 3 -13 19zM310 833q-2 -13 -7 -21q-8 -12 -14 -17q-8 -7 -20 -12q-9 -4 -22 -4q-12 0 -20 4q-9 5 -15 12q-7 9 -10 17q-4 10 -2 21q2 12 7 22q6 10 14 17q10 8 19 12 q12 5 21 5q11 0 21 -5q11 -5 16 -12q8 -10 10 -17q3 -12 2 -22zM523 833q-2 -13 -7 -21q-8 -12 -14 -17q-10 -8 -19 -12t-22 -4t-21 4q-11 5 -16 12q-6 7 -9 17t-2 21q2 12 7 22q6 10 14 17q10 8 19 12q12 5 22 5t20 -5q11 -5 16 -12q8 -10 10 -17q3 -12 2 -22z" />
<glyph unicode="&#x2c6;" horiz-adv-x="381" d="M350 584h-60q-9 0 -19 8l-56 62l-8 9l-9 -9l-72 -62q-1 -1 -9 -5q-6 -3 -12 -3h-61l127 132h83z" />
<glyph unicode="&#x2dc;" horiz-adv-x="398" d="M265 662q18 0 29 11t14 32h54q-3 -23 -12 -43q-10 -22 -22 -34q-13 -13 -31 -21t-37 -8q-18 0 -32 7t-26 16q-4 3 -12.5 8.5t-11.5 7.5q-10 7 -23 7q-36 0 -42 -44h-55q3 28 11 44q9 20 23 34q13 15 31 22q17 7 37 7q18 0 32 -7q21 -11 27 -15q5 -3 13 -8.5t10 -7.5 q11 -8 23 -8z" />
<glyph unicode="&#x2013;" horiz-adv-x="511" d="M60 328h400l-8 -66h-400z" />
<glyph unicode="&#x2014;" horiz-adv-x="776" d="M60 328h665l-7 -66h-666z" />
<glyph unicode="&#x2018;" horiz-adv-x="211" d="M72 506q-10 19 -15 48q-4 22 -1 48q6 45 33 87q23 37 72 75l25 -16q4 -4 5 -6v-6q-2 -9 -6 -12l-18 -21q-10 -11 -17 -23q-7 -11 -12 -26q-6 -18 -7 -28q-2 -23 0 -34q3 -16 12 -36q2 -4 2 -11q-2 -13 -15 -17z" />
<glyph unicode="&#x2019;" horiz-adv-x="208" d="M161 754q12 -24 15 -48q4 -28 1 -48q-6 -45 -33 -87q-25 -38 -71 -75l-25 16q-4 4 -5 6v6q2 9 6 12q9 9 18 21q16 21 17 23q7 11 12 26q6 18 7 28q2 19 -1 34q-4 20 -11 36q-3 6 -3 10q1 12 16 18z" />
<glyph unicode="&#x201a;" horiz-adv-x="221" d="M145 120q12 -24 15 -48q4 -28 1 -48q-6 -44 -33 -86q-26 -40 -71 -76l-26 17q-3 3 -4 5t-1 6q2 8 7 12q9 9 18 21q6 8 16 24t13 25q6 18 7 29q2 18 -1 33q-3 16 -12 36q-2 4 -2 11q1 10 16 17z" />
<glyph unicode="&#x201c;" horiz-adv-x="363" d="M72 506q-10 19 -15 48q-4 22 -1 48q6 45 33 87q23 37 72 75l25 -16q4 -4 5 -6v-6q-2 -9 -6 -12l-18 -21q-10 -11 -17 -23q-7 -11 -12 -26q-6 -18 -7 -28q-2 -23 0 -34q3 -16 12 -36q2 -4 2 -11q-2 -13 -15 -17zM224 506q-10 19 -15 48q-4 22 -1 48q6 45 33 87 q23 37 72 75l25 -17l5 -5v-6q-2 -9 -6 -12l-18 -21q-10 -11 -17 -23q-7 -11 -12 -26q-6 -18 -7 -29q-2 -22 0 -33q3 -16 12 -36q2 -4 2 -11q-2 -13 -15 -17z" />
<glyph unicode="&#x201d;" horiz-adv-x="360" d="M161 754q12 -24 15 -48q4 -28 1 -48q-6 -45 -33 -87q-25 -38 -71 -75l-25 16q-4 4 -5 6v6q2 9 6 12q9 9 18 21q16 21 17 23q7 11 12 26q6 18 7 28q2 19 -1 34q-4 20 -11 36q-3 6 -3 10q1 12 16 18zM313 754q12 -24 15 -48q4 -28 1 -48q-6 -45 -33 -87q-25 -38 -71 -75 l-25 16q-4 4 -5 6v6q2 9 6 12q9 9 18 21q16 21 17 23q7 11 12 26q6 18 7 28q2 19 -1 34q-4 20 -11 36q-3 6 -3 10q1 12 16 18z" />
<glyph unicode="&#x201e;" horiz-adv-x="373" d="M145 120q12 -24 15 -48q4 -28 1 -48q-6 -44 -33 -86q-26 -40 -71 -76l-26 17q-3 3 -4 5t-1 6q2 8 7 12q9 9 18 21q6 8 16 24t13 25q6 18 7 29q2 18 -1 33q-3 16 -12 36q-2 4 -2 11q1 10 16 17zM297 120q12 -24 15 -47q4 -28 1 -48q-6 -45 -33 -87q-26 -40 -71 -76l-26 17 q-2 2 -4 6q-1 2 -1 6q2 8 7 12q12 12 18 20t16 24q9 15 13 26q6 18 7 28q2 18 -1 33q-3 16 -12 36q-2 4 -2 11q1 10 16 17z" />
<glyph unicode="&#x2022;" horiz-adv-x="450" d="M38 298q4 37 24 72q19 34 47 59q29 26 63 40q36 15 74 15q40 0 71 -15q32 -15 54 -40q23 -26 33 -59q10 -32 5 -72q-5 -42 -23 -73q-21 -36 -47 -59q-25 -22 -65 -39q-36 -15 -74 -15t-70 15q-34 16 -54 39q-21 23 -32 59q-11 33 -6 73z" />
<glyph unicode="&#x2026;" d="M41 55q2 14 7 25q3 6 16 19q10 10 21 14q13 5 25 5t24 -5q11 -5 19 -14q7 -9 10 -19q3 -13 2 -25t-8 -25q-5 -10 -15 -20q-8 -8 -22 -13q-13 -5 -25 -5t-24 5q-11 5 -18 13q-9 10 -11 20q-3 10 -1 25zM555 55q1 12 8 25q4 8 15 19q9 9 22 14t25 5t24 -5q10 -4 18 -14 q9 -11 11 -19q3 -13 2 -25t-8 -25q-4 -8 -16 -20q-8 -8 -22 -13q-13 -5 -25 -5t-24 5q-11 5 -18 13q-7 9 -10 20q-3 13 -2 25zM298 55q2 14 7 25q3 6 16 19q10 10 21 14q13 5 25 5t24 -5q11 -5 19 -14t10 -19q3 -13 2 -25t-8 -25q-5 -10 -15 -20q-8 -8 -22 -13 q-13 -5 -25 -5t-24 5q-11 5 -18 13q-9 10 -11 20q-3 10 -1 25z" />
<glyph unicode="&#x2039;" horiz-adv-x="246" d="M26 259l2 12l148 194l28 -14q6 -3 9 -9q3 -7 2 -12q-2 -9 -7 -16l-96 -131q-10 -13 -16 -18q9 -12 12 -18l63 -131q0 -1 1.5 -3.5t1.5 -4.5v-9q-2 -15 -16 -21l-31 -14z" />
<glyph unicode="&#x203a;" horiz-adv-x="244" d="M214 270l-1 -11l-149 -194l-27 14q-13 6 -11 20q1 9 7 17l95 131q6 10 16 18q-5 5 -11 18l-64 131q-4 8 -3 16q2 15 17 21l31 14z" />
<glyph unicode="&#x20ac;" horiz-adv-x="600" d="M34 450h74q18 64 47 113t70 87q37 34 88 55q47 19 102 19q68 0 112 -25q43 -25 74 -69l-35 -34q-6 -6 -9 -8q-5 -3 -11 -3q-10 0 -17 9q-5 6 -22 21q-13 11 -37 21q-25 10 -61 10q-72 0 -127 -50q-53 -49 -82 -146h273l-3 -28q-1 -8 -9 -16q-7 -7 -20 -7h-254 q-1 -4 -2 -10.5t-1 -9.5t-1 -10t-1 -11l-2 -15q-2 -10 -2 -15h234l-4 -28q-1 -8 -9 -16q-7 -7 -19 -7h-204q1 -103 44 -155q42 -51 114 -51q30 0 48 5q23 6 37 13q14 6 28 17q5 4 12.5 10.5t8.5 7.5q6 5 16 13q6 5 13 5q3 0 7 -2q2 -1 6 -5l33 -35q-42 -51 -96 -79 q-56 -29 -127 -29q-57 0 -102 20q-42 19 -74 57q-30 36 -45 89q-15 52 -15 118h-71l6 52h67q0 4 2 14l2 16q0 3 1 10t1 10t1 9.5t2 10.5h-67z" />
<glyph unicode="&#x2122;" horiz-adv-x="711" d="M481 554q1 -3 2.5 -7t1.5 -6q2 -8 3 -13q2 5 6 13q1 2 4 6.5t4 6.5l103 152q7 7 10 8q6 2 12 2h53l-36 -296h-55l22 183l9 37l-112 -168q-8 -14 -24 -14h-9q-15 0 -20 14l-71 167v-36l-23 -183h-55l36 296h53q8 0 12 -2q3 -2 8 -8zM294 716l-6 -52h-90l-30 -244h-63 l30 244h-90l6 52h243z" />
<glyph unicode="&#x25fc;" horiz-adv-x="505" d="M0 505h505v-505h-505v505z" />
</font>
</defs>
</svg>
